<?xml version="1.0" encoding="utf-8"?>
<!-- Generator: Adobe Illustrator 27.5.0, SVG Export Plug-In . SVG Version: 6.00 Build 0)  -->
<svg version="1.1" id="Capa_1" xmlns="http://www.w3.org/2000/svg" xmlns:xlink="http://www.w3.org/1999/xlink" x="0px" y="0px"
	 viewBox="0 0 800 800" style="enable-background:new 0 0 800 800;" xml:space="preserve">
<rect x="-8" y="-8" style="fill:#FFFFFF;" width="820" height="818"/>
<g>
	<g>
		<path style="fill:#E8EDEF;" d="M739.329,432.838h-27.575c-7.462,0-16.162-6.753-19-14.748c-2.63-7.411-5.718-14.787-9.171-21.928
			c-3.676-7.595-2.324-18.467,2.951-23.742l19.631-19.631c13.752-13.752,13.752-36.131,0-49.883l-31.863-31.863
			c-6.662-6.663-15.52-10.331-24.941-10.331c-9.422,0-18.279,3.668-24.941,10.331l-19.631,19.631
			c-3.151,3.151-8.399,5.032-14.034,5.032c-3.527,0-6.882-0.721-9.7-2.085c-7.145-3.457-14.532-6.549-21.959-9.19
			c-7.991-2.838-14.744-11.538-14.744-18.996v-27.579c0-19.447-15.821-35.272-35.272-35.272h-45.07
			c-19.451,0-35.272,15.826-35.272,35.272v27.579c0,7.462-6.753,16.163-14.744,18.996c-7.419,2.634-14.803,5.718-21.939,9.167
			c-2.771,1.34-6.208,2.077-9.68,2.077c-5.655,0-10.919-1.885-14.078-5.044l-19.6-19.592c-6.663-6.663-15.52-10.331-24.945-10.331
			c-9.422,0-18.279,3.668-24.941,10.327l-31.894,31.874c-6.667,6.659-10.335,15.516-10.339,24.938
			c0,9.422,3.668,18.279,10.331,24.941l19.631,19.631c5.279,5.279,6.635,16.159,2.959,23.758
			c-3.445,7.129-6.529,14.501-9.159,21.916c-2.837,7.991-11.534,14.744-18.996,14.744h-27.575
			c-19.451,0-35.272,15.826-35.272,35.272v45.07c0,19.447,15.822,35.272,35.272,35.272h27.575c7.462,0,16.163,6.749,19,14.74
			c2.626,7.395,5.71,14.771,9.167,21.916c3.672,7.595,2.312,18.475-2.971,23.758l-19.631,19.631
			c-13.752,13.752-13.752,36.13,0,49.883l31.906,31.91c6.663,6.663,15.52,10.331,24.941,10.331c9.422,0,18.279-3.668,24.941-10.331
			l19.631-19.631c3.159-3.159,8.418-5.044,14.07-5.044c3.523,0,6.87,0.717,9.68,2.077c7.141,3.453,14.517,6.537,21.92,9.167
			c7.991,2.837,14.744,11.538,14.744,19v27.579c0,19.447,15.822,35.272,35.272,35.272h45.07c19.451,0,35.272-15.825,35.272-35.272
			v-27.579c0-7.462,6.753-16.163,14.744-18.996c7.419-2.634,14.803-5.718,21.939-9.167c2.771-1.34,6.208-2.077,9.68-2.077
			c5.655,0,10.915,1.885,14.074,5.044l19.631,19.631c6.663,6.662,15.516,10.331,24.938,10.331c9.425,0,18.283-3.672,24.945-10.339
			l31.874-31.894c13.744-13.756,13.744-36.135-0.004-49.887l-19.615-19.623c-5.275-5.275-6.627-16.155-2.955-23.754
			c3.449-7.133,6.529-14.513,9.163-21.928c2.834-7.991,11.53-14.74,18.992-14.74h27.575c19.451,0,35.272-15.826,35.272-35.272
			v-45.07C774.601,448.659,758.775,432.838,739.329,432.838z M589.911,490.645c0,56.996-46.371,103.367-103.367,103.367
			c-56.996,0-103.367-46.371-103.367-103.367c0-56.996,46.371-103.367,103.367-103.367
			C543.54,387.278,589.911,433.645,589.911,490.645z"/>
		<path style="fill:#E8EDEF;" d="M272.829,206.539c0.666-1.877,2.896-3.461,3.947-3.461h13.811
			c12.964,0,23.515-10.546,23.515-23.515v-22.535c0-12.969-10.55-23.515-23.515-23.515H276.78c-1.05,0-3.28-1.583-3.947-3.461
			c-1.387-3.907-3.014-7.799-4.836-11.557c-0.85-1.76-0.4-4.413,0.337-5.15l9.817-9.817c9.167-9.171,9.167-24.087,0-33.254
			L262.22,54.343c-4.441-4.44-10.347-6.886-16.629-6.886s-12.188,2.45-16.629,6.89l-9.813,9.814
			c-0.306,0.306-1.356,0.796-2.865,0.796c-0.858,0-1.689-0.165-2.285-0.455c-3.766-1.822-7.654-3.449-11.558-4.832
			c-1.881-0.666-3.464-2.9-3.464-3.947V41.911c0-12.968-10.55-23.515-23.515-23.515h-22.535c-12.964,0-23.515,10.546-23.515,23.515
			v13.811c0,1.05-1.583,3.276-3.461,3.943c-3.923,1.391-7.815,3.022-11.565,4.836c-0.592,0.286-1.427,0.451-2.285,0.451
			c-1.509,0-2.555-0.486-2.861-0.792l-9.817-9.814c-4.44-4.44-10.346-6.886-16.629-6.886c-6.282,0-12.185,2.446-16.625,6.886
			L50.238,70.278c-9.167,9.171-9.167,24.091,0,33.258l9.813,9.813c0.737,0.737,1.191,3.39,0.341,5.146
			c-1.822,3.762-3.449,7.654-4.836,11.561c-0.666,1.877-2.9,3.465-3.946,3.465H37.798c-12.965,0-23.515,10.546-23.515,23.515v22.535
			c0,12.965,10.546,23.515,23.511,23.515h13.811c1.05,0,3.28,1.583,3.947,3.461c1.387,3.911,3.014,7.799,4.836,11.558
			c0.85,1.76,0.4,4.413-0.337,5.15l-9.818,9.818c-4.44,4.44-6.886,10.346-6.886,16.629c0,6.282,2.446,12.185,6.89,16.629
			l15.931,15.927c4.44,4.44,10.347,6.886,16.629,6.886c6.282,0,12.185-2.445,16.625-6.886l9.817-9.817
			c0.306-0.306,1.356-0.796,2.865-0.796c0.858,0,1.689,0.165,2.285,0.455c3.766,1.822,7.654,3.449,11.558,4.832
			c1.881,0.666,3.465,2.9,3.465,3.947v13.811c0,12.968,10.55,23.515,23.515,23.515h22.535c12.965,0,23.515-10.546,23.515-23.515
			v-13.807c0-1.05,1.583-3.276,3.461-3.943c3.907-1.387,7.795-3.014,11.558-4.836c0.596-0.29,1.43-0.455,2.289-0.455
			c1.509,0,2.555,0.49,2.865,0.796l9.817,9.817c4.44,4.44,10.346,6.886,16.629,6.886c6.282,0,12.185-2.445,16.625-6.886
			l15.931-15.931c9.167-9.171,9.167-24.087,0-33.254l-9.813-9.813c-0.737-0.737-1.191-3.394-0.341-5.15
			C269.819,214.33,271.446,210.442,272.829,206.539z M209.998,168.296c0,25.255-20.548,45.807-45.803,45.807
			c-25.259,0-45.807-20.548-45.807-45.807s20.548-45.807,45.807-45.807C189.45,122.489,209.998,143.037,209.998,168.296z"/>
	</g>
</g>
<g>
	<g>
		<path style="fill:#073953;" d="M270.738,749.462v-0.267c-0.359,0.416-0.715,0.751-1.066,1.011c-0.351,0.26-0.73,0.455-1.141,0.591
			c-0.411,0.135-0.856,0.201-1.342,0.201c-0.643,0-1.237-0.137-1.786-0.407c-0.546-0.276-1.02-0.662-1.418-1.166
			c-0.403-0.503-0.704-1.101-0.911-1.781c-0.207-0.681-0.311-1.417-0.311-2.212c0-1.678,0.412-2.985,1.232-3.923
			c0.817-0.936,1.897-1.406,3.233-1.406c0.774,0,1.426,0.134,1.958,0.399c0.53,0.267,1.046,0.672,1.552,1.225v-3.963
			c0-0.551,0.111-0.968,0.33-1.25c0.218-0.282,0.531-0.424,0.938-0.424c0.406,0,0.721,0.132,0.941,0.391
			c0.219,0.257,0.33,0.641,0.33,1.146v11.836c0,0.512-0.12,0.896-0.355,1.15c-0.235,0.258-0.542,0.386-0.916,0.386
			c-0.367,0-0.67-0.131-0.908-0.398C270.857,750.336,270.738,749.952,270.738,749.462z M265.459,745.521
			c0,0.729,0.111,1.347,0.34,1.857c0.226,0.51,0.535,0.898,0.926,1.155c0.394,0.261,0.824,0.39,1.291,0.39
			c0.471,0,0.9-0.122,1.293-0.367c0.389-0.249,0.701-0.625,0.935-1.132c0.229-0.51,0.346-1.143,0.346-1.903
			c0-0.715-0.117-1.329-0.346-1.846c-0.234-0.513-0.549-0.907-0.945-1.177c-0.398-0.273-0.832-0.408-1.304-0.408
			c-0.492,0-0.931,0.137-1.317,0.417c-0.387,0.281-0.688,0.68-0.898,1.201C265.564,744.227,265.459,744.833,265.459,745.521z"/>
		<path style="fill:#073953;" d="M283.461,746.199h-5.25c0.006,0.611,0.129,1.148,0.368,1.613c0.241,0.465,0.558,0.816,0.954,1.051
			c0.397,0.236,0.834,0.356,1.313,0.356c0.322,0,0.614-0.04,0.881-0.11c0.264-0.075,0.521-0.2,0.771-0.356
			c0.249-0.162,0.477-0.334,0.69-0.519c0.208-0.181,0.479-0.43,0.814-0.745c0.137-0.116,0.334-0.18,0.59-0.18
			c0.275,0,0.496,0.078,0.666,0.229c0.174,0.15,0.259,0.362,0.259,0.639c0,0.242-0.097,0.526-0.284,0.852
			c-0.193,0.323-0.478,0.637-0.863,0.934c-0.381,0.297-0.862,0.547-1.445,0.744c-0.579,0.194-1.246,0.294-2,0.294
			c-1.725,0-3.065-0.491-4.022-1.475c-0.957-0.983-1.435-2.315-1.435-4.002c0-0.792,0.118-1.531,0.355-2.209
			c0.236-0.677,0.578-1.26,1.031-1.744c0.453-0.481,1.01-0.856,1.672-1.118c0.662-0.256,1.396-0.385,2.203-0.385
			c1.049,0,1.947,0.22,2.697,0.663c0.752,0.444,1.313,1.015,1.688,1.716c0.373,0.701,0.561,1.417,0.561,2.144
			c0,0.674-0.195,1.113-0.582,1.315C284.707,746.1,284.163,746.199,283.461,746.199z M278.211,744.676h4.865
			c-0.064-0.919-0.313-1.603-0.742-2.059c-0.43-0.456-0.992-0.686-1.694-0.686c-0.669,0-1.219,0.231-1.647,0.694
			C278.564,743.087,278.303,743.773,278.211,744.676z"/>
		<path style="fill:#073953;" d="M296.576,747.488c0,0.739-0.18,1.375-0.541,1.902c-0.358,0.526-0.891,0.925-1.595,1.201
			c-0.704,0.271-1.565,0.407-2.571,0.407c-0.966,0-1.792-0.149-2.478-0.443c-0.69-0.294-1.196-0.664-1.525-1.108
			c-0.327-0.438-0.491-0.885-0.491-1.328c0-0.297,0.104-0.55,0.311-0.759c0.213-0.209,0.477-0.316,0.799-0.316
			c0.283,0,0.498,0.071,0.648,0.207c0.152,0.139,0.299,0.331,0.435,0.58c0.275,0.479,0.604,0.837,0.986,1.072
			c0.386,0.235,0.909,0.355,1.571,0.355c0.535,0,0.978-0.119,1.32-0.36c0.344-0.238,0.516-0.512,0.516-0.819
			c0-0.475-0.18-0.818-0.537-1.034c-0.357-0.214-0.944-0.422-1.762-0.617c-0.926-0.231-1.676-0.471-2.258-0.723
			c-0.578-0.254-1.043-0.586-1.391-0.999c-0.348-0.411-0.52-0.921-0.52-1.525c0-0.533,0.158-1.045,0.48-1.524
			c0.318-0.477,0.797-0.857,1.418-1.144c0.627-0.286,1.385-0.428,2.27-0.428c0.692,0,1.316,0.072,1.871,0.216
			c0.554,0.148,1.016,0.34,1.387,0.583c0.371,0.245,0.652,0.509,0.846,0.806c0.193,0.298,0.291,0.584,0.291,0.864
			c0,0.308-0.102,0.563-0.311,0.754c-0.204,0.2-0.499,0.296-0.878,0.296c-0.277,0-0.51-0.077-0.703-0.232
			c-0.193-0.159-0.415-0.396-0.665-0.706c-0.203-0.266-0.44-0.477-0.718-0.633c-0.277-0.157-0.648-0.235-1.119-0.235
			c-0.487,0-0.89,0.104-1.211,0.313c-0.321,0.206-0.482,0.461-0.482,0.769c0,0.284,0.119,0.514,0.355,0.694
			c0.234,0.18,0.553,0.327,0.954,0.447c0.396,0.117,0.948,0.264,1.65,0.432c0.834,0.204,1.513,0.445,2.042,0.727
			c0.527,0.284,0.926,0.616,1.197,1C296.44,746.556,296.576,746.996,296.576,747.488z"/>
		<path style="fill:#073953;" d="M300.205,738.836c-0.373,0-0.692-0.117-0.959-0.345c-0.265-0.229-0.397-0.554-0.397-0.973
			c0-0.381,0.135-0.696,0.408-0.94c0.27-0.246,0.586-0.367,0.947-0.367c0.346,0,0.655,0.108,0.924,0.331
			c0.27,0.225,0.404,0.55,0.404,0.977c0,0.41-0.131,0.735-0.393,0.968C300.877,738.719,300.565,738.836,300.205,738.836z
			 M301.533,741.606v7.76c0,0.538-0.129,0.943-0.385,1.22c-0.256,0.274-0.58,0.413-0.972,0.413c-0.393,0-0.716-0.142-0.959-0.424
			c-0.247-0.282-0.368-0.685-0.368-1.209v-7.679c0-0.532,0.121-0.933,0.368-1.2c0.243-0.268,0.566-0.404,0.959-0.404
			c0.392,0,0.716,0.136,0.972,0.404C301.404,740.754,301.533,741.131,301.533,741.606z"/>
		<path style="fill:#073953;" d="M314.176,742.05v7.794c0,0.895-0.094,1.659-0.283,2.302c-0.191,0.646-0.496,1.175-0.916,1.594
			c-0.418,0.419-0.969,0.732-1.648,0.937c-0.678,0.199-1.522,0.301-2.528,0.301c-0.925,0-1.751-0.127-2.48-0.386
			c-0.728-0.26-1.285-0.593-1.682-1.002c-0.392-0.411-0.588-0.831-0.588-1.266c0-0.325,0.111-0.594,0.334-0.801
			c0.223-0.206,0.49-0.312,0.807-0.312c0.39,0,0.735,0.176,1.03,0.521c0.146,0.179,0.294,0.357,0.448,0.537
			c0.152,0.179,0.326,0.335,0.51,0.463c0.187,0.127,0.412,0.222,0.674,0.285c0.262,0.061,0.565,0.095,0.904,0.095
			c0.694,0,1.236-0.095,1.619-0.292c0.384-0.192,0.65-0.463,0.807-0.809c0.154-0.352,0.242-0.722,0.268-1.12
			c0.028-0.393,0.047-1.03,0.061-1.911c-0.414,0.578-0.891,1.017-1.433,1.319c-0.539,0.3-1.184,0.451-1.932,0.451
			c-0.896,0-1.682-0.229-2.355-0.689c-0.674-0.458-1.186-1.1-1.548-1.927c-0.359-0.828-0.541-1.78-0.541-2.862
			c0-0.805,0.109-1.531,0.33-2.182c0.22-0.648,0.533-1.196,0.939-1.644c0.406-0.447,0.875-0.783,1.405-1.006
			c0.53-0.225,1.115-0.34,1.751-0.34c0.758,0,1.418,0.145,1.977,0.438c0.555,0.29,1.072,0.749,1.555,1.37v-0.361
			c0-0.464,0.113-0.826,0.342-1.082c0.228-0.257,0.523-0.386,0.885-0.386c0.518,0,0.859,0.172,1.031,0.509
			C314.09,740.927,314.176,741.413,314.176,742.05z M306.397,745.451c0,1.09,0.239,1.915,0.714,2.468
			c0.477,0.559,1.092,0.838,1.844,0.838c0.445,0,0.867-0.119,1.264-0.359c0.397-0.238,0.721-0.6,0.97-1.082
			c0.247-0.481,0.374-1.065,0.374-1.756c0-1.094-0.242-1.944-0.724-2.557c-0.481-0.609-1.116-0.912-1.903-0.912
			c-0.767,0-1.381,0.289-1.844,0.875C306.629,743.548,306.397,744.377,306.397,745.451z"/>
		<path style="fill:#073953;" d="M319.331,741.568v0.324c0.471-0.622,0.985-1.08,1.546-1.371c0.561-0.289,1.205-0.438,1.932-0.438
			c0.709,0,1.34,0.154,1.9,0.465c0.554,0.307,0.971,0.743,1.245,1.308c0.179,0.328,0.292,0.681,0.345,1.061
			c0.053,0.382,0.078,0.866,0.078,1.456v4.994c0,0.538-0.123,0.943-0.367,1.22c-0.244,0.274-0.568,0.413-0.958,0.413
			c-0.401,0-0.726-0.142-0.974-0.424c-0.25-0.282-0.373-0.685-0.373-1.209v-4.474c0-0.885-0.123-1.561-0.369-2.033
			c-0.248-0.467-0.736-0.701-1.471-0.701c-0.48,0-0.914,0.144-1.307,0.429c-0.395,0.282-0.684,0.675-0.869,1.174
			c-0.127,0.401-0.194,1.15-0.194,2.243v3.362c0,0.546-0.126,0.949-0.378,1.226c-0.253,0.271-0.581,0.407-0.979,0.407
			c-0.388,0-0.703-0.142-0.953-0.424c-0.25-0.282-0.373-0.685-0.373-1.209v-7.76c0-0.51,0.111-0.891,0.333-1.144
			c0.222-0.252,0.526-0.38,0.916-0.38c0.235,0,0.448,0.059,0.638,0.167c0.188,0.113,0.343,0.282,0.457,0.502
			C319.27,740.976,319.331,741.244,319.331,741.568z"/>
		<path style="fill:#073953;" d="M336.545,746.199h-5.252c0.008,0.611,0.129,1.148,0.369,1.613c0.239,0.465,0.559,0.816,0.953,1.051
			c0.397,0.236,0.836,0.356,1.314,0.356c0.32,0,0.615-0.04,0.879-0.11c0.265-0.075,0.521-0.2,0.773-0.356
			c0.248-0.162,0.478-0.334,0.688-0.519c0.209-0.181,0.48-0.43,0.814-0.745c0.139-0.116,0.336-0.18,0.588-0.18
			c0.278,0,0.498,0.078,0.672,0.229c0.17,0.15,0.255,0.362,0.255,0.639c0,0.242-0.093,0.526-0.285,0.852
			c-0.188,0.323-0.477,0.637-0.86,0.934c-0.383,0.297-0.865,0.547-1.445,0.744c-0.581,0.194-1.248,0.294-2,0.294
			c-1.726,0-3.064-0.491-4.021-1.475c-0.959-0.983-1.438-2.315-1.438-4.002c0-0.792,0.119-1.531,0.353-2.209
			c0.238-0.677,0.581-1.26,1.035-1.744c0.452-0.481,1.008-0.856,1.671-1.118c0.663-0.256,1.396-0.385,2.203-0.385
			c1.048,0,1.946,0.22,2.698,0.663c0.75,0.444,1.313,1.015,1.686,1.716c0.374,0.701,0.56,1.417,0.56,2.144
			c0,0.674-0.195,1.113-0.578,1.315C337.789,746.1,337.246,746.199,336.545,746.199z M331.293,744.676h4.867
			c-0.068-0.919-0.313-1.603-0.742-2.059c-0.428-0.456-0.996-0.686-1.695-0.686c-0.67,0-1.219,0.231-1.648,0.694
			C331.646,743.087,331.385,743.773,331.293,744.676z"/>
		<path style="fill:#073953;" d="M348.371,749.462v-0.267c-0.359,0.416-0.715,0.751-1.066,1.011c-0.35,0.26-0.732,0.455-1.139,0.591
			c-0.412,0.135-0.859,0.201-1.344,0.201c-0.643,0-1.235-0.137-1.784-0.407c-0.546-0.276-1.021-0.662-1.421-1.166
			c-0.398-0.503-0.701-1.101-0.908-1.781c-0.207-0.681-0.311-1.417-0.311-2.212c0-1.678,0.41-2.985,1.229-3.923
			c0.819-0.936,1.898-1.406,3.235-1.406c0.774,0,1.427,0.134,1.954,0.399c0.531,0.267,1.051,0.672,1.555,1.225v-3.963
			c0-0.551,0.111-0.968,0.331-1.25c0.221-0.282,0.531-0.424,0.94-0.424c0.403,0,0.714,0.132,0.938,0.391
			c0.221,0.257,0.328,0.641,0.328,1.146v11.836c0,0.512-0.117,0.896-0.353,1.15c-0.237,0.258-0.541,0.386-0.913,0.386
			c-0.369,0-0.672-0.131-0.911-0.398C348.492,750.336,348.371,749.952,348.371,749.462z M343.094,745.521
			c0,0.729,0.111,1.347,0.338,1.857c0.227,0.51,0.533,0.898,0.932,1.155c0.391,0.261,0.82,0.39,1.285,0.39
			c0.475,0,0.904-0.122,1.295-0.367c0.387-0.249,0.7-0.625,0.932-1.132c0.234-0.51,0.352-1.143,0.352-1.903
			c0-0.715-0.117-1.329-0.352-1.846c-0.232-0.513-0.545-0.907-0.944-1.177c-0.396-0.273-0.829-0.408-1.302-0.408
			c-0.491,0-0.931,0.137-1.318,0.417c-0.389,0.281-0.685,0.68-0.898,1.201C343.199,744.227,343.094,744.833,343.094,745.521z"/>
		<path style="fill:#073953;" d="M361.115,737.627v4.101c0.504-0.527,1.02-0.928,1.543-1.206c0.523-0.279,1.172-0.418,1.949-0.418
			c0.889,0,1.67,0.212,2.342,0.636c0.672,0.422,1.193,1.035,1.563,1.836c0.371,0.803,0.557,1.757,0.557,2.857
			c0,0.814-0.103,1.558-0.311,2.237c-0.206,0.68-0.506,1.267-0.897,1.763c-0.393,0.497-0.87,0.883-1.43,1.159
			c-0.562,0.271-1.181,0.407-1.856,0.407c-0.411,0-0.801-0.051-1.163-0.149c-0.363-0.098-0.674-0.227-0.929-0.387
			c-0.256-0.161-0.476-0.326-0.656-0.497c-0.18-0.169-0.415-0.425-0.711-0.769v0.267c0,0.508-0.121,0.888-0.365,1.149
			c-0.242,0.257-0.549,0.387-0.925,0.387c-0.378,0-0.682-0.13-0.909-0.387c-0.225-0.262-0.339-0.642-0.339-1.149v-11.719
			c0-0.541,0.11-0.955,0.331-1.236c0.221-0.275,0.525-0.417,0.917-0.417c0.413,0,0.733,0.133,0.956,0.401
			C361.004,736.756,361.115,737.135,361.115,737.627z M361.242,745.598c0,1.07,0.244,1.892,0.732,2.463
			c0.49,0.576,1.129,0.862,1.922,0.862c0.676,0,1.258-0.293,1.746-0.882c0.488-0.584,0.732-1.426,0.732-2.521
			c0-0.709-0.103-1.315-0.306-1.828c-0.201-0.514-0.49-0.904-0.864-1.186c-0.37-0.28-0.809-0.417-1.308-0.417
			c-0.514,0-0.966,0.137-1.366,0.417c-0.399,0.281-0.714,0.683-0.944,1.211C361.357,744.245,361.242,744.873,361.242,745.598z"/>
		<path style="fill:#073953;" d="M373.435,751.333l0.244-0.602l-3.303-8.317c-0.205-0.478-0.307-0.824-0.307-1.041
			c0-0.229,0.062-0.444,0.178-0.639c0.118-0.199,0.281-0.355,0.486-0.473c0.206-0.116,0.424-0.179,0.645-0.179
			c0.389,0,0.68,0.124,0.875,0.367c0.197,0.249,0.371,0.599,0.522,1.06l2.272,6.609l2.152-6.146c0.171-0.502,0.325-0.887,0.46-1.174
			c0.141-0.279,0.285-0.469,0.441-0.567c0.152-0.099,0.371-0.149,0.65-0.149c0.203,0,0.398,0.056,0.586,0.163
			c0.188,0.108,0.33,0.255,0.432,0.437c0.101,0.188,0.154,0.378,0.154,0.582c-0.027,0.124-0.068,0.3-0.127,0.53
			c-0.06,0.231-0.133,0.462-0.217,0.7l-3.499,9.16c-0.304,0.81-0.597,1.439-0.888,1.896c-0.287,0.46-0.67,0.812-1.145,1.059
			c-0.475,0.246-1.117,0.367-1.924,0.367c-0.785,0-1.377-0.083-1.769-0.253c-0.393-0.169-0.589-0.481-0.589-0.933
			c0-0.308,0.093-0.547,0.281-0.714c0.185-0.168,0.461-0.253,0.83-0.253c0.143,0,0.283,0.023,0.422,0.061
			c0.171,0.042,0.318,0.06,0.443,0.06c0.309,0,0.547-0.048,0.727-0.141c0.177-0.092,0.338-0.248,0.477-0.477
			C373.088,752.102,373.25,751.77,373.435,751.333z"/>
	</g>
	<g>
		<path style="fill:#073953;" d="M423.105,740.318h0.643v-0.803c0-0.841,0.104-1.509,0.32-2.003c0.207-0.493,0.571-0.857,1.078-1.08
			c0.508-0.228,1.204-0.342,2.09-0.342c1.566,0,2.351,0.384,2.351,1.151c0,0.252-0.083,0.464-0.247,0.642
			c-0.162,0.175-0.357,0.264-0.579,0.264c-0.111,0-0.286-0.019-0.544-0.059c-0.254-0.041-0.469-0.059-0.648-0.059
			c-0.485,0-0.796,0.142-0.93,0.427c-0.142,0.285-0.206,0.694-0.206,1.224v0.638h0.654c1.023,0,1.533,0.313,1.533,0.926
			c0,0.44-0.133,0.72-0.408,0.836c-0.272,0.118-0.644,0.177-1.125,0.177h-0.654v7.109c0,0.53-0.131,0.936-0.385,1.215
			c-0.251,0.279-0.579,0.418-0.979,0.418c-0.377,0-0.691-0.139-0.947-0.418c-0.254-0.279-0.375-0.685-0.375-1.215v-7.109h-0.74
			c-0.397,0-0.707-0.088-0.924-0.271c-0.218-0.178-0.326-0.412-0.326-0.702C421.758,740.643,422.207,740.318,423.105,740.318z"/>
		<path style="fill:#073953;" d="M432.691,747.123v2.242c0,0.546-0.125,0.949-0.381,1.226c-0.26,0.271-0.58,0.407-0.976,0.407
			c-0.382,0-0.702-0.139-0.953-0.413c-0.249-0.276-0.374-0.682-0.374-1.22v-7.474c0-1.205,0.438-1.81,1.307-1.81
			c0.447,0,0.77,0.142,0.967,0.423c0.195,0.282,0.301,0.699,0.322,1.252c0.326-0.553,0.652-0.97,0.988-1.252
			c0.34-0.281,0.793-0.423,1.353-0.423c0.561,0,1.111,0.142,1.641,0.423c0.533,0.282,0.798,0.658,0.798,1.123
			c0,0.328-0.112,0.597-0.343,0.811c-0.223,0.21-0.467,0.316-0.73,0.316c-0.096,0-0.336-0.058-0.716-0.182
			c-0.375-0.122-0.706-0.182-0.995-0.182c-0.393,0-0.715,0.105-0.962,0.313c-0.245,0.204-0.446,0.512-0.579,0.921
			c-0.141,0.405-0.234,0.89-0.291,1.448C432.719,745.633,432.691,746.32,432.691,747.123z"/>
		<path style="fill:#073953;" d="M445.838,746.199h-5.25c0.008,0.611,0.127,1.148,0.369,1.613c0.237,0.465,0.556,0.816,0.953,1.051
			c0.398,0.236,0.836,0.356,1.313,0.356c0.321,0,0.617-0.04,0.883-0.11c0.263-0.075,0.52-0.2,0.769-0.356
			c0.249-0.162,0.481-0.334,0.692-0.519c0.207-0.181,0.479-0.43,0.812-0.745c0.138-0.116,0.339-0.18,0.596-0.18
			c0.27,0,0.492,0.078,0.661,0.229c0.174,0.15,0.258,0.362,0.258,0.639c0,0.242-0.094,0.526-0.283,0.852
			c-0.193,0.323-0.477,0.637-0.857,0.934c-0.387,0.297-0.867,0.547-1.451,0.744c-0.577,0.194-1.246,0.294-1.999,0.294
			c-1.726,0-3.064-0.491-4.021-1.475c-0.956-0.983-1.438-2.315-1.438-4.002c0-0.792,0.119-1.531,0.355-2.209
			c0.236-0.677,0.58-1.26,1.029-1.744c0.455-0.481,1.014-0.856,1.676-1.118c0.661-0.256,1.395-0.385,2.203-0.385
			c1.045,0,1.944,0.22,2.695,0.663c0.752,0.444,1.317,1.015,1.688,1.716c0.371,0.701,0.56,1.417,0.56,2.144
			c0,0.674-0.19,1.113-0.579,1.315C447.082,746.1,446.539,746.199,445.838,746.199z M440.588,744.676h4.867
			c-0.064-0.919-0.31-1.603-0.742-2.059c-0.431-0.456-0.994-0.686-1.696-0.686c-0.667,0-1.219,0.231-1.648,0.694
			C440.943,743.087,440.68,743.773,440.588,744.676z"/>
		<path style="fill:#073953;" d="M457.805,746.199h-5.25c0.004,0.611,0.129,1.148,0.369,1.613c0.238,0.465,0.555,0.816,0.951,1.051
			c0.398,0.236,0.836,0.356,1.314,0.356c0.318,0,0.614-0.04,0.877-0.11c0.266-0.075,0.525-0.2,0.773-0.356
			c0.251-0.162,0.479-0.334,0.688-0.519c0.211-0.181,0.484-0.43,0.818-0.745c0.137-0.116,0.332-0.18,0.589-0.18
			c0.276,0,0.495,0.078,0.667,0.229c0.172,0.15,0.258,0.362,0.258,0.639c0,0.242-0.096,0.526-0.285,0.852
			c-0.19,0.323-0.478,0.637-0.861,0.934c-0.383,0.297-0.863,0.547-1.443,0.744c-0.582,0.194-1.248,0.294-2.004,0.294
			c-1.721,0-3.061-0.491-4.021-1.475c-0.956-0.983-1.433-2.315-1.433-4.002c0-0.792,0.117-1.531,0.352-2.209
			c0.236-0.677,0.581-1.26,1.031-1.744c0.453-0.481,1.012-0.856,1.674-1.118c0.661-0.256,1.396-0.385,2.2-0.385
			c1.053,0,1.95,0.22,2.7,0.663c0.751,0.444,1.313,1.015,1.685,1.716c0.377,0.701,0.563,1.417,0.563,2.144
			c0,0.674-0.192,1.113-0.582,1.315C459.052,746.1,458.507,746.199,457.805,746.199z M452.555,744.676h4.867
			c-0.068-0.919-0.316-1.603-0.742-2.059c-0.432-0.456-0.994-0.686-1.695-0.686c-0.671,0-1.219,0.231-1.65,0.694
			C452.905,743.087,452.642,743.773,452.555,744.676z"/>
		<path style="fill:#073953;" d="M464.488,741.589v0.322c0.51-0.621,1.031-1.08,1.575-1.37c0.544-0.293,1.161-0.438,1.848-0.438
			c0.825,0,1.586,0.212,2.278,0.639c0.698,0.431,1.248,1.049,1.652,1.869c0.402,0.817,0.603,1.788,0.603,2.91
			c0,0.823-0.117,1.581-0.352,2.276c-0.23,0.689-0.551,1.272-0.96,1.739c-0.403,0.47-0.881,0.831-1.438,1.084
			c-0.553,0.251-1.149,0.378-1.785,0.378c-0.767,0-1.409-0.156-1.933-0.464c-0.52-0.306-1.017-0.757-1.49-1.357v4.031
			c0,1.182-0.428,1.768-1.285,1.768c-0.508,0-0.838-0.151-1.002-0.456c-0.165-0.305-0.247-0.746-0.247-1.331v-11.584
			c0-0.51,0.113-0.891,0.333-1.144c0.223-0.252,0.525-0.38,0.916-0.38c0.377,0,0.69,0.129,0.929,0.392
			C464.371,740.734,464.488,741.105,464.488,741.589z M469.75,745.491c0-0.707-0.108-1.315-0.326-1.821
			c-0.215-0.509-0.516-0.901-0.898-1.171c-0.383-0.273-0.805-0.408-1.272-0.408c-0.742,0-1.365,0.289-1.874,0.875
			c-0.507,0.583-0.763,1.441-0.763,2.576c0,1.068,0.252,1.898,0.758,2.492c0.506,0.595,1.131,0.89,1.879,0.89
			c0.443,0,0.86-0.129,1.236-0.39c0.383-0.257,0.687-0.646,0.914-1.162C469.635,746.853,469.75,746.227,469.75,745.491z"/>
		<path style="fill:#073953;" d="M475.957,738.836c-0.375,0-0.695-0.117-0.959-0.345c-0.265-0.229-0.399-0.554-0.399-0.973
			c0-0.381,0.135-0.696,0.405-0.94c0.272-0.246,0.59-0.367,0.953-0.367c0.346,0,0.65,0.108,0.92,0.331
			c0.271,0.225,0.402,0.55,0.402,0.977c0,0.41-0.127,0.735-0.389,0.968C476.627,738.719,476.316,738.836,475.957,738.836z
			 M477.279,741.606v7.76c0,0.538-0.125,0.943-0.385,1.22c-0.252,0.274-0.574,0.413-0.971,0.413c-0.395,0-0.711-0.142-0.957-0.424
			c-0.248-0.282-0.368-0.685-0.368-1.209v-7.679c0-0.532,0.12-0.933,0.368-1.2c0.246-0.268,0.563-0.404,0.957-0.404
			c0.396,0,0.719,0.136,0.971,0.404C477.154,740.754,477.279,741.131,477.279,741.606z"/>
		<path style="fill:#073953;" d="M486.738,749.766l-2.367-3.893l-1.455,1.377v2.136c0,0.518-0.137,0.915-0.408,1.194
			c-0.273,0.279-0.587,0.418-0.938,0.418c-0.414,0-0.737-0.139-0.977-0.413c-0.234-0.276-0.352-0.682-0.352-1.22V737.92
			c0-0.596,0.109-1.053,0.344-1.361c0.23-0.313,0.558-0.469,0.984-0.469c0.414,0,0.738,0.142,0.98,0.424
			c0.243,0.282,0.365,0.699,0.365,1.25v6.508l3.018-3.163c0.375-0.397,0.656-0.662,0.853-0.811c0.199-0.143,0.436-0.216,0.721-0.216
			c0.331,0,0.612,0.107,0.834,0.322c0.223,0.213,0.338,0.479,0.338,0.8c0,0.396-0.367,0.92-1.094,1.573l-1.426,1.309l2.754,4.326
			c0.204,0.317,0.348,0.566,0.436,0.731c0.088,0.166,0.133,0.329,0.133,0.477c0,0.43-0.117,0.763-0.352,1.01
			c-0.23,0.245-0.54,0.369-0.914,0.369c-0.328,0-0.582-0.087-0.758-0.267C487.279,750.555,487.041,750.233,486.738,749.766z"/>
		<path style="fill:#073953;" d="M493.379,750.998c-0.41,0-0.76-0.131-1.053-0.394c-0.293-0.263-0.444-0.63-0.444-1.102
			c0-0.401,0.142-0.744,0.421-1.033c0.285-0.288,0.635-0.431,1.047-0.431c0.411,0,0.76,0.141,1.056,0.427
			c0.29,0.286,0.437,0.63,0.437,1.037c0,0.468-0.147,0.833-0.437,1.098C494.109,750.868,493.77,750.998,493.379,750.998z"/>
		<path style="fill:#073953;" d="M507.527,747.672c0,0.335-0.103,0.693-0.303,1.074c-0.199,0.379-0.504,0.742-0.912,1.087
			c-0.412,0.344-0.93,0.62-1.547,0.83c-0.628,0.211-1.326,0.312-2.111,0.312c-1.652,0-2.948-0.479-3.881-1.447
			c-0.928-0.968-1.393-2.264-1.393-3.889c0-1.102,0.207-2.073,0.637-2.92c0.424-0.847,1.043-1.502,1.85-1.96
			c0.803-0.463,1.769-0.694,2.891-0.694c0.692,0,1.328,0.102,1.911,0.303c0.579,0.205,1.073,0.466,1.472,0.787
			c0.403,0.322,0.715,0.664,0.93,1.028c0.209,0.363,0.318,0.704,0.318,1.021c0,0.318-0.123,0.592-0.363,0.813
			c-0.236,0.224-0.527,0.333-0.867,0.333c-0.223,0-0.412-0.057-0.557-0.171c-0.145-0.116-0.313-0.3-0.496-0.553
			c-0.324-0.5-0.669-0.876-1.025-1.126c-0.357-0.246-0.813-0.372-1.361-0.372c-0.793,0-1.436,0.311-1.92,0.929
			c-0.482,0.618-0.729,1.466-0.729,2.541c0,0.506,0.063,0.972,0.188,1.392c0.127,0.423,0.308,0.784,0.541,1.083
			c0.233,0.299,0.521,0.523,0.855,0.679c0.336,0.154,0.703,0.229,1.103,0.229c0.535,0,0.995-0.123,1.38-0.372
			c0.384-0.25,0.72-0.628,1.018-1.141c0.165-0.299,0.343-0.539,0.531-0.706c0.191-0.171,0.422-0.258,0.695-0.258
			c0.329,0,0.604,0.125,0.818,0.373C507.417,747.127,507.527,747.393,507.527,747.672z"/>
		<path style="fill:#073953;" d="M519.913,745.542c0,0.798-0.126,1.536-0.374,2.211c-0.25,0.678-0.61,1.256-1.081,1.738
			c-0.471,0.485-1.037,0.859-1.692,1.121c-0.653,0.257-1.393,0.387-2.211,0.387c-0.813,0-1.543-0.131-2.193-0.394
			c-0.646-0.263-1.209-0.635-1.686-1.124c-0.474-0.49-0.834-1.067-1.08-1.73c-0.246-0.666-0.367-1.405-0.367-2.208
			c0-0.813,0.121-1.557,0.371-2.236c0.248-0.672,0.605-1.249,1.07-1.727c0.466-0.477,1.027-0.845,1.691-1.104
			c0.664-0.263,1.393-0.392,2.193-0.392c0.815,0,1.551,0.133,2.211,0.396c0.662,0.261,1.229,0.636,1.701,1.122
			c0.475,0.481,0.833,1.063,1.078,1.731C519.787,744,519.913,744.735,519.913,745.542z M517.222,745.542
			c0-1.095-0.245-1.948-0.725-2.557c-0.481-0.61-1.128-0.913-1.942-0.913c-0.524,0-0.987,0.132-1.387,0.406
			c-0.397,0.272-0.709,0.675-0.924,1.205c-0.219,0.527-0.326,1.149-0.326,1.858c0,0.7,0.108,1.313,0.319,1.837
			c0.214,0.525,0.521,0.928,0.916,1.205c0.396,0.279,0.86,0.417,1.401,0.417c0.815,0,1.461-0.306,1.942-0.919
			C516.977,747.469,517.222,746.622,517.222,745.542z"/>
		<path style="fill:#073953;" d="M530.957,745.739v3.566c0,0.565-0.132,0.987-0.385,1.27c-0.256,0.281-0.596,0.424-1.014,0.424
			c-0.404,0-0.734-0.142-0.988-0.424c-0.25-0.282-0.379-0.704-0.379-1.27v-4.277c0-0.674-0.023-1.196-0.069-1.573
			c-0.042-0.372-0.169-0.677-0.37-0.917c-0.205-0.239-0.527-0.357-0.966-0.357c-0.878,0-1.458,0.301-1.733,0.902
			c-0.279,0.603-0.422,1.469-0.422,2.596v3.627c0,0.56-0.125,0.98-0.377,1.263c-0.254,0.288-0.584,0.431-1,0.431
			c-0.4,0-0.738-0.142-0.998-0.431c-0.258-0.282-0.386-0.703-0.386-1.263v-7.677c0-0.502,0.114-0.89,0.349-1.15
			c0.232-0.263,0.539-0.396,0.92-0.396c0.369,0,0.674,0.124,0.92,0.367c0.244,0.249,0.367,0.587,0.367,1.021v0.256
			c0.465-0.555,0.965-0.968,1.493-1.229c0.534-0.262,1.123-0.395,1.773-0.395c0.674,0,1.255,0.134,1.736,0.402
			c0.488,0.271,0.889,0.676,1.201,1.222c0.455-0.553,0.938-0.958,1.455-1.225c0.518-0.266,1.094-0.399,1.725-0.399
			c0.73,0,1.366,0.143,1.893,0.432c0.533,0.292,0.928,0.7,1.191,1.239c0.231,0.485,0.344,1.249,0.344,2.291v5.24
			c0,0.565-0.129,0.987-0.385,1.27c-0.254,0.281-0.59,0.424-1.01,0.424c-0.404,0-0.739-0.142-1-0.431
			c-0.259-0.282-0.387-0.703-0.387-1.263v-4.511c0-0.576-0.025-1.04-0.072-1.389c-0.055-0.346-0.186-0.638-0.4-0.874
			c-0.213-0.235-0.545-0.352-0.983-0.352c-0.353,0-0.688,0.104-1.009,0.314c-0.315,0.211-0.563,0.49-0.742,0.843
			C531.053,743.791,530.957,744.59,530.957,745.739z"/>
	</g>
	<g>
		<path style="fill:#073953;" d="M401.959,733.162c-0.057-0.17-0.119-0.342-0.175-0.515c0.905-0.081,1.511-1.161,1.069-1.962
			c-0.402-0.903-1.793-1.016-2.33-0.187c-0.575,0.732-0.126,1.89,0.752,2.122c0.053,0.187,0.106,0.372,0.162,0.559
			c-1.351,0.084-2.73,0.387-3.861,1.157c0.113,0.33,0.233,0.659,0.346,0.987c2.287-1.002,4.858-0.782,7.27-0.543
			c0.079-0.317,0.158-0.637,0.238-0.955C404.34,733.334,403.142,733.153,401.959,733.162z"/>
		<path style="fill:#073953;" d="M415.563,736.857c-0.363,0.184-0.431,0.616-0.412,0.985c-0.4,0.389-0.213,0.979-0.258,1.473
			c-0.089,0.275-0.418,0.304-0.645,0.41c-0.319-0.481-0.655-0.947-1.076-1.341l0.001-0.022c-0.461-0.433-0.959-0.82-1.483-1.164
			c-0.427,0.451-0.868,0.896-1.277,1.368c0.806,0.889,1.551,1.834,2.21,2.84c0.449,0.761,0.818,1.57,1.134,2.397
			c0.681-0.345,1.353-0.711,2.032-1.066c-0.357-0.832-0.77-1.641-1.205-2.437c0.3-0.159,0.705-0.319,0.753-0.711
			c0.035-0.437-0.064-0.905,0.202-1.287c0.522,0.345,1.32-0.045,1.327-0.685C416.935,736.961,416.104,736.481,415.563,736.857z"/>
		<path style="fill:#073953;" d="M411.881,741.791c-0.885-1.469-1.844-2.928-3.148-4.064c-1.506-1.324-3.462-2.22-5.49-2.21
			c-2.566-0.032-5.164,0.387-7.523,1.415c-2.227,0.977-4.162,2.719-5.143,4.974c-0.944,2.024-0.934,4.357-0.507,6.513
			c2.36,0.591,4.757,1.116,7.194,1.231c2.4,0.075,4.816,0.133,7.203-0.204c3.274-0.43,6.486-1.472,9.346-3.143
			C413.813,746.302,413.42,744.145,411.881,741.791z M400.283,744.693c-0.441,0.647-1.08,1.147-1.815,1.429
			c-1.379,0.514-3.059,0.164-4.05-0.938c-0.692-0.759-1.104-1.787-1.029-2.822c0.052-1.295,0.852-2.497,1.985-3.106
			c0.867-0.471,1.911-0.551,2.852-0.287c0.398,0.1,0.763,0.286,1.102,0.511c0.697,0.496,1.225,1.227,1.455,2.052
			C401.105,742.587,400.9,743.778,400.283,744.693z M410.227,742.362c-0.161,1.104-1.221,2.042-2.35,1.97
			c-0.656,0.057-1.287-0.255-1.729-0.717c-0.319-0.394-0.581-0.854-0.626-1.373c-0.15-1.123,0.637-2.278,1.739-2.55
			c0.48-0.135,0.986-0.06,1.466,0.052C409.762,740.111,410.441,741.278,410.227,742.362z"/>
		<path style="fill:#073953;" d="M390.607,738.507c-0.961,0.577-1.746,1.396-2.405,2.292c-0.192-0.353-0.251-0.778-0.501-1.098
			c-0.141-0.19-0.398-0.112-0.597-0.116c-0.255,0.028-0.503-0.042-0.741-0.115c0.277-0.396,0.207-1.001-0.227-1.256
			c-0.457-0.331-1.168-0.046-1.289,0.501c-0.193,0.6,0.443,1.2,1.031,1.042c0.311,0.458,0.875,0.385,1.354,0.404
			c0.217,0.373,0.379,0.783,0.655,1.123c-0.513,1.014-0.802,2.148-0.825,3.286c0.658,0.274,1.318,0.556,1.978,0.831
			c0.033-0.717,0.117-1.43,0.229-2.138c0.221-1.537,1.11-2.876,2.164-3.982C391.174,739.01,390.883,738.769,390.607,738.507z"/>
		<path style="fill:#073953;" d="M406.033,750.119c-2.436,0.531-4.941,0.685-7.43,0.576c-1.68-0.085-3.361-0.241-5.002-0.605
			c-1.165-0.237-2.305-0.572-3.447-0.899c0.18,1.465,0.771,2.864,1.617,4.068c0.997,1.399,2.327,2.688,3.988,3.203
			c1.293,0.348,2.836,0.793,5.494,0.748c2.198-0.041,4.359-0.32,6.289-1.137c1.242-0.537,2.412-1.266,3.41-2.179
			c0.867-0.815,1.547-1.835,2.012-2.929c0.455-1.032,0.866-2.884,0.819-3.834C411.408,748.484,408.742,749.664,406.033,750.119z"/>
	</g>
</g>
<path style="fill:#BBD655;" d="M563.206,264.035c-1-1.733-1.563-3.738-1.539-5.868c0.073-6.465,5.493-11.646,12.108-11.569
	l0.509,0.017c1.299-2.827,4.809-4.83,8.916-4.782c4.62,0.049,8.426,2.678,9.158,6.083c0.797-0.094,1.614-0.143,2.448-0.133
	c2.715,0.03,5.249,0.639,7.416,1.667c1.676-2.714,4.691-4.507,8.111-4.466c3.739,0.041,6.943,2.26,8.425,5.437
	c1.999-1.215,4.374-1.908,6.92-1.882c7.011,0.081,12.634,5.605,12.556,12.343c-0.04,3.814-1.907,7.2-4.789,9.402
	c1.141,1.588,1.801,3.506,1.778,5.565c-0.062,5.382-4.746,9.692-10.463,9.627c-1.073-0.011-3.076-0.474-3.076-0.474
	c-4.477,7.184-17.057,3.805-15.977,2.534c-14.211,16.712-29.588,14.621-29.957,14.475c6.06-1.445,9.32-6.384,11.863-12.418
	c-1.634,0.545-3.41,0.837-5.27,0.815c-5.037-0.057-9.438-2.385-11.94-5.851c-1.495,0.528-3.134,0.809-4.852,0.789
	c-6.876-0.078-12.395-4.96-12.326-10.9C553.285,269.275,557.56,265.003,563.206,264.035z"/>
<g>
	<path style="fill:#012F58;" d="M697.18,496.554H501.079c-2.685,0-4.9,1.81-4.9,4.495v135.329c0,2.685,2.215,5.183,4.9,5.183
		h196.112c2.685,0,4.415-2.501,4.415-5.183V501.049C701.606,498.364,699.868,496.554,697.18,496.554z"/>
	<path style="fill:#FFFFFF;" d="M690,624.856c0,2.949-0.641,4.144-3.419,4.144H512.415c-2.778,0-6.415-1.195-6.415-4.144V512.453
		c0-2.949,3.637-5.453,6.415-5.453h174.167c2.778,0,3.419,2.504,3.419,5.453V624.856z"/>
	<path style="fill:#012F58;" d="M719,655.956c0,1.129-0.915,2.044-2.044,2.044H480.044c-1.129,0-2.044-0.915-2.044-2.044v-7.912
		c0-1.129,0.915-2.044,2.044-2.044h236.912c1.129,0,2.044,0.915,2.044,2.044V655.956z"/>
</g>
<g>
	<path style="fill:#012F58;" d="M74.032,97.808l-0.056,96.5c-0.004,6.083,4.914,10.983,10.993,10.986l139.938,0.082
		c6.059,0.004,10.997-4.89,11.001-10.973l0.056-96.5c0.004-6.064-4.924-10.988-10.988-10.991L85.037,86.83
		C78.959,86.821,74.035,91.744,74.032,97.808z"/>
	<path style="fill:#FFFFFF;" d="M231.815,146.145c-0.002,3.611-2.924,6.529-6.53,6.527c-3.611-0.002-6.534-2.924-6.532-6.535
		c0.002-3.601,2.929-6.529,6.539-6.527C228.898,139.613,231.817,142.544,231.815,146.145z"/>
	<rect x="87.218" y="97.981" style="fill:#FFFFFF;" width="125.815" height="96.233"/>
</g>
<path style="fill:#02345F;" d="M513.926,188.705c0,1.335-1.082,2.416-2.416,2.416h-68.865c-1.335,0-2.416-1.082-2.416-2.416V95.273
	c0-1.334,1.082-2.416,2.416-2.416h68.865c1.335,0,2.416,1.082,2.416,2.416V188.705z"/>
<rect x="446" y="99" style="fill:#FFFFFF;" width="62" height="87"/>
<path style="fill:#05C0D0;" d="M482.312,96.079c0,0,0.201-7.173-5.437-7.173s-5.235,7.173-5.235,7.173h-9.464v9.263h29.399v-9.263
	H482.312z M476.875,90.979c3.297-0.009,3.177,4.501,3.157,5.1l-6.228-0.025C473.628,90.667,476.875,90.979,476.875,90.979z"/>
<g>
	<rect x="466" y="118" style="fill:#02345F;" width="34" height="1"/>
</g>
<g>
	<rect x="466" y="133" style="fill:#02345F;" width="34" height="1"/>
</g>
<g>
	<rect x="466" y="147" style="fill:#02345F;" width="34" height="1"/>
</g>
<g>
	<rect x="466" y="162" style="fill:#02345F;" width="34" height="1"/>
</g>
<path style="fill:#BBD655;" d="M460.048,115.118l-3.589,3.013l-1.206-1.436c-0.332-0.397-0.923-0.448-1.32-0.115
	s-0.448,0.924-0.115,1.32l1.809,2.153c0.332,0.397,0.923,0.448,1.32,0.115l4.306-3.615c0.397-0.333,0.448-0.923,0.115-1.32
	C461.035,114.836,460.445,114.785,460.048,115.118z"/>
<path style="fill:#BBD655;" d="M460.048,130.421l-3.589,3.013l-1.206-1.436c-0.332-0.397-0.923-0.448-1.32-0.115
	c-0.397,0.333-0.448,0.924-0.115,1.32l1.809,2.153c0.332,0.397,0.923,0.448,1.32,0.115l4.306-3.615
	c0.397-0.333,0.448-0.923,0.115-1.32C461.035,130.14,460.445,130.088,460.048,130.421z"/>
<path style="fill:#BBD655;" d="M460.048,144.517l-3.589,3.013l-1.206-1.436c-0.332-0.397-0.923-0.448-1.32-0.115
	c-0.397,0.333-0.448,0.924-0.115,1.32l1.809,2.153c0.332,0.397,0.923,0.448,1.32,0.115l4.306-3.615
	c0.397-0.333,0.448-0.923,0.115-1.32C461.035,144.235,460.445,144.184,460.048,144.517z"/>
<path style="fill:#BBD655;" d="M459.967,158.794l-3.589,3.013l-1.206-1.436c-0.332-0.397-0.923-0.448-1.32-0.115
	c-0.397,0.333-0.449,0.924-0.115,1.32l1.809,2.153c0.332,0.397,0.923,0.448,1.32,0.115l4.306-3.615
	c0.397-0.333,0.448-0.923,0.115-1.32C460.954,158.513,460.364,158.461,459.967,158.794z"/>
<g>
	<path style="fill:#012F58;" d="M210.292,499.144l-96.5-0.056c-6.083-0.004-10.983,4.914-10.986,10.993l-0.082,139.938
		c-0.004,6.059,4.891,10.997,10.974,11.001l96.5,0.057c6.064,0.003,10.988-4.924,10.991-10.988l0.082-139.938
		C221.279,504.071,216.356,499.148,210.292,499.144z"/>
	<path style="fill:#FFFFFF;" d="M161.955,656.927c-3.611-0.002-6.529-2.924-6.527-6.53c0.002-3.611,2.924-6.534,6.535-6.532
		c3.601,0.002,6.529,2.929,6.527,6.539C168.487,654.011,165.556,656.929,161.955,656.927z"/>
	<rect x="113.886" y="512.33" style="fill:#FFFFFF;" width="96.233" height="125.814"/>
</g>
<path id="MobileMe_13_" style="fill:#BBD655;" d="M372.423,194.349c0,7.687-6.187,13.919-13.816,13.919h-42.747
	c-7.629,0-13.813-6.232-13.813-13.919c0-6.943,5.044-12.694,11.642-13.747c-0.084-0.487-0.13-0.988-0.13-1.504
	c0-4.871,3.919-8.819,8.755-8.819c2.157,0,4.133,0.786,5.658,2.093c2.718-6.171,6.202-11.803,15.978-11.803
	c11.855,0,17.474,9.212,17.474,18.934c0,0.407-0.017,0.809-0.045,1.208C367.682,182.005,372.423,187.619,372.423,194.349z"/>
<path id="MobileMe_15_" style="fill:#BBD655;" d="M409.025,620.401c0,12.697-10.218,22.99-22.818,22.99h-70.602
	c-12.6,0-22.814-10.293-22.814-22.99c0-11.467,8.33-20.966,19.229-22.704c-0.138-0.805-0.214-1.632-0.214-2.485
	c0-8.045,6.473-14.565,14.46-14.565c3.562,0,6.826,1.298,9.344,3.457c4.489-10.192,10.244-19.494,26.389-19.494
	c19.58,0,28.861,15.215,28.861,31.271c0,0.672-0.029,1.337-0.074,1.995C401.194,600.012,409.025,609.285,409.025,620.401z"/>
<path id="MobileMe_14_" style="fill:#05C0D0;" d="M595.731,430.145c0,12.506,10.064,22.644,22.475,22.644h69.539
	c12.41,0,22.471-10.138,22.471-22.644c0-11.295-8.205-20.651-18.94-22.363c0.136-0.793,0.211-1.608,0.211-2.447
	c0-7.924-6.375-14.346-14.242-14.346c-3.508,0-6.723,1.279-9.203,3.405c-4.422-10.039-10.09-19.2-25.992-19.2
	c-19.286,0-28.427,14.986-28.427,30.8c0,0.661,0.028,1.317,0.072,1.965C603.445,410.063,595.731,419.196,595.731,430.145z"/>
<g>
	<g>
		<rect x="663" y="221" style="fill:none;" width="6" height="6"/>
		<g>
			<circle style="fill:#073953;" cx="666.46" cy="223.934" r="3"/>
		</g>
	</g>
	<g>
		<rect x="663" y="232" style="fill:none;" width="6" height="6"/>
		<g>
			<circle style="fill:#073953;" cx="666.418" cy="234.734" r="3"/>
		</g>
	</g>
	<g>
		<rect x="663" y="243" style="fill:none;" width="6" height="6"/>
		<g>
			<circle style="fill:#073953;" cx="666.376" cy="245.534" r="3"/>
		</g>
	</g>
	<g>
		<rect x="663" y="253" style="fill:none;" width="6" height="6"/>
		<g>
			<circle style="fill:#073953;" cx="666.335" cy="256.334" r="3"/>
		</g>
	</g>
	<g>
		<rect x="663" y="264" style="fill:none;" width="6" height="6"/>
		<g>
			<circle style="fill:#073953;" cx="666.293" cy="267.134" r="3"/>
		</g>
	</g>
	<g>
		<rect x="663" y="275" style="fill:none;" width="6" height="6"/>
		<g>
			<circle style="fill:#073953;" cx="666.251" cy="277.934" r="3"/>
		</g>
	</g>
	<g>
		<rect x="663" y="286" style="fill:none;" width="6" height="6"/>
		<g>
			<circle style="fill:#073953;" cx="666.21" cy="288.734" r="3"/>
		</g>
	</g>
	<g>
		<rect x="663" y="297" style="fill:none;" width="6" height="6"/>
		<g>
			<circle style="fill:#073953;" cx="666.168" cy="299.534" r="3"/>
		</g>
	</g>
	<g>
		<rect x="663" y="307" style="fill:none;" width="6" height="6"/>
		<g>
			<circle style="fill:#073953;" cx="666.126" cy="310.334" r="3"/>
		</g>
	</g>
	<g>
		<rect x="663" y="318" style="fill:none;" width="6" height="6"/>
		<g>
			<circle style="fill:#073953;" cx="666.084" cy="321.134" r="3"/>
		</g>
	</g>
	<g>
		<rect x="663" y="329" style="fill:none;" width="6" height="6"/>
		<g>
			<circle style="fill:#073953;" cx="666.043" cy="331.933" r="3"/>
		</g>
	</g>
	<g>
		<rect x="663" y="340" style="fill:none;" width="6" height="6"/>
		<g>
			<circle style="fill:#073953;" cx="666.001" cy="342.733" r="3"/>
		</g>
	</g>
	<g>
		<rect x="652" y="340" style="fill:none;" width="6" height="6"/>
		<g>
			<circle style="fill:#073953;" cx="655.467" cy="343" r="3"/>
		</g>
	</g>
	<g>
		<rect x="642" y="340" style="fill:none;" width="6" height="6"/>
		<g>
			<circle style="fill:#073953;" cx="644.667" cy="343" r="3"/>
		</g>
	</g>
	<g>
		<rect x="631" y="340" style="fill:none;" width="6" height="6"/>
		<g>
			<circle style="fill:#073953;" cx="633.867" cy="343" r="3"/>
		</g>
	</g>
	<g>
		<rect x="620" y="340" style="fill:none;" width="6" height="6"/>
		<g>
			<circle style="fill:#073953;" cx="623.067" cy="343" r="3"/>
		</g>
	</g>
	<g>
		<rect x="609" y="340" style="fill:none;" width="6" height="6"/>
		<g>
			<circle style="fill:#073953;" cx="612.267" cy="343" r="3"/>
		</g>
	</g>
	<g>
		<rect x="598" y="340" style="fill:none;" width="6" height="6"/>
		<g>
			<circle style="fill:#073953;" cx="601.467" cy="343" r="3"/>
		</g>
	</g>
	<g>
		<rect x="588" y="340" style="fill:none;" width="6" height="6"/>
		<g>
			<circle style="fill:#073953;" cx="590.667" cy="343" r="3"/>
		</g>
	</g>
	<g>
		<rect x="577" y="340" style="fill:none;" width="6" height="6"/>
		<g>
			<circle style="fill:#073953;" cx="579.867" cy="343" r="3"/>
		</g>
	</g>
	<g>
		<rect x="566" y="340" style="fill:none;" width="6" height="6"/>
		<g>
			<circle style="fill:#073953;" cx="569.067" cy="343" r="3"/>
		</g>
	</g>
	<g>
		<rect x="555" y="340" style="fill:none;" width="6" height="6"/>
		<g>
			<circle style="fill:#073953;" cx="558.267" cy="343" r="3"/>
		</g>
	</g>
	<g>
		<rect x="544" y="340" style="fill:none;" width="6" height="6"/>
		<g>
			<circle style="fill:#073953;" cx="547.467" cy="343" r="3"/>
		</g>
	</g>
	<g>
		<rect x="534" y="340" style="fill:none;" width="6" height="6"/>
		<g>
			<circle style="fill:#073953;" cx="536.667" cy="343" r="3"/>
		</g>
	</g>
</g>
<g>
	<path style="fill:#012F58;" d="M520.565,261.434H284.508c-3.232,0-6.466,1.863-6.466,5.094V429.43c0,3.232,3.234,5.666,6.466,5.666
		h88.166c0,0,0.059,15.051,0.081,15.051h-12.158c-2.962,0-5.365,2.247-5.365,5.208c0,2.961,2.403,5.211,5.365,5.211h86.815
		c2.961,0,5.365-2.247,5.365-5.211c0-2.962-2.403-5.208-5.365-5.208h-12.555c0.018,0-0.121-15.051-0.121-15.051h85.84
		c3.232,0,6.381-2.438,6.381-5.666V266.528C526.958,263.297,523.799,261.434,520.565,261.434z"/>
	<path style="fill:#FFFFFF;" d="M517,406.858c0,3.392-2.75,6.142-6.142,6.142H296.142c-3.392,0-6.142-2.75-6.142-6.142V278.142
		c0-3.392,2.75-6.142,6.142-6.142h214.715c3.392,0,6.142,2.75,6.142,6.142V406.858z"/>
</g>
<g>
	<path style="fill:#073953;" d="M691.865,92.366h-50.797c-4.858,0-8.782,3.94-8.782,8.798v103.141c0,4.843,3.924,8.786,8.782,8.786
		h50.797c4.85,0,8.79-3.94,8.79-8.786V101.164C700.651,96.306,696.715,92.366,691.865,92.366z"/>
	<rect x="638.873" y="107.207" style="fill:#FFFFFF;" width="55.194" height="82.974"/>
	<polygon style="fill:#FFFFFF;" points="678.243,101.293 654.693,101.293 654.693,98.725 678.247,98.725 678.247,101.293 	"/>
	<path style="fill:#FFFFFF;" d="M688.321,100.12c0,1.242-1.013,2.248-2.252,2.248c-1.242,0-2.252-1.01-2.252-2.248
		c0-1.238,1.01-2.248,2.252-2.248C687.308,97.868,688.321,98.878,688.321,100.12z"/>
	<rect x="655.741" y="197.119" style="fill:#FFFFFF;" width="21.447" height="6.599"/>
</g>
<path style="fill:none;stroke:#012F58;stroke-width:3;stroke-miterlimit:10;" d="M236,147.5h128c0,0,25.5-1,25.5,25V261"/>
<rect x="233.5" y="138.5" style="fill:#012F58;" width="6" height="16"/>
<rect x="275.5" y="285.5" style="fill:#012F58;" width="6" height="16"/>
<path style="fill:#073953;" d="M571.089,157.467v-18.646c-0.001,0-0.003,0-0.004,0c-10.297,0-18.639,8.345-18.639,18.641
	c0,5.157,2.093,9.826,5.479,13.201l13.194-13.195H571.089z"/>
<path style="fill:#073953;" d="M559.495,172.887c3.373,3.361,8.024,5.441,13.161,5.441c10.292,0,18.638-8.343,18.641-18.635H572.69
	L559.495,172.887z"/>
<path style="fill:#05C0D0;" d="M573.577,138.821v18.646h18.638v-0.006C592.215,147.169,583.87,138.826,573.577,138.821z"/>
<path style="fill:#BBD655;" d="M112.747,452.757l10.473,18.141c-2.816,1.403-5.978,2.211-9.337,2.211
	c-11.602,0-21.008-9.407-21.008-21.008c0-11.158,8.706-20.26,19.695-20.942V452.1C112.57,452.326,112.629,452.552,112.747,452.757z"
	/>
<path style="fill:#012F58;" d="M115,431.158V451h19.824C134.17,440,126,431.813,115,431.158z M118,434.169
	c7,1.526,12.288,6.831,13.814,13.831H118V434.169z"/>
<path style="fill:#012F58;" d="M125.5,469.598c5.316-3.536,8.907-9.43,9.325-16.185h-18.667L125.5,469.598z"/>
<path style="fill:#012F58;" d="M187.363,327.124c1.411-3.87,4.297-7.198,8.323-9.072l6.788,14.581L187.363,327.124z"/>
<path style="fill:#012F58;" d="M199.292,321.443l6.788,14.581l-15.109-5.51c-1.412,3.868-1.347,8.272,0.527,12.298
	c3.748,8.051,13.318,11.542,21.369,7.793c8.051-3.748,11.542-13.318,7.793-21.369C216.913,321.185,207.343,317.695,199.292,321.443z
	"/>
<polygon style="fill:#05C0D0;" points="471.367,523.766 471.367,526.126 433.611,526.126 433.611,488.369 435.97,488.369 
	435.97,523.766 "/>
<polygon style="fill:#BBD655;" points="450.491,501.475 460.13,503.883 463.467,498.324 466.491,500.14 466.647,490.729 
	458.418,495.297 461.442,497.112 459.006,501.173 449.767,498.862 439.856,508.773 441.524,510.441 "/>
<polygon style="fill:#05C0D0;" points="447.769,521.406 452.489,521.406 452.489,504.406 451.214,504.088 447.769,507.533 "/>
<polygon style="fill:#05C0D0;" points="440.69,512.944 440.69,521.406 445.409,521.406 445.409,509.893 441.524,513.778 "/>
<polygon style="fill:#05C0D0;" points="461.928,505.478 461.928,521.406 466.647,521.406 466.647,502.987 464.276,501.565 "/>
<polygon style="fill:#05C0D0;" points="459.568,521.406 459.568,506.176 454.849,504.996 454.849,521.406 "/>
<path style="fill:none;stroke:#012F58;stroke-width:3;stroke-miterlimit:10;" d="M275.503,293.497h-88.5c-26,0-25,25.5-25,25.5v128
	l-0.005,56.701"/>
<rect x="150.5" y="494.5" style="fill:#012F58;" width="24" height="9"/>
<path style="fill:none;stroke:#012F58;stroke-width:3;stroke-miterlimit:10;" d="M502,564l-71.5-0.005c0,0-25.5,1-25.5-25v-88.5"/>
<rect x="491.5" y="555.5" style="fill:#012F58;" width="8" height="18"/>
<rect x="306" y="293" style="fill:#05C0D0;" width="194" height="29"/>
<rect x="517" y="529" style="fill:#012F58;" width="161.667" height="18.5"/>
<rect x="517" y="554" style="fill:#A0A0A0;" width="162" height="9"/>
<rect x="642" y="112" style="fill:#05C0D0;" width="48.5" height="52.065"/>
<rect x="642" y="168.299" style="fill:#BBD655;" width="48.5" height="18.599"/>
<rect x="305" y="389" style="fill:#A0A0A0;" width="145" height="10"/>
<rect x="94" y="171" style="fill:#A0A0A0;" width="111" height="10"/>
<rect x="457" y="389" style="fill:#A0A0A0;" width="42" height="10"/>
<rect x="306" y="327.488" style="fill:#BBD655;" width="42.844" height="29.82"/>
<rect x="163" y="577.488" style="fill:#BBD655;" width="40.844" height="32.012"/>
<rect x="356.385" y="327.488" style="fill:#BBD655;" width="42.844" height="29.82"/>
<rect x="406.77" y="327.488" style="fill:#BBD655;" width="42.844" height="29.82"/>
<rect x="457.155" y="327.488" style="fill:#BBD655;" width="42.845" height="29.82"/>
<rect x="120" y="523" style="fill:#012F58;" width="84" height="11"/>
<rect x="121" y="615" style="fill:#A0A0A0;" width="84" height="4"/>
<rect x="121" y="623" style="fill:#A0A0A0;" width="84" height="4"/>
<rect x="93.667" y="108.147" style="fill:#012F58;" width="112.413" height="16.048"/>
<rect x="120" y="539" style="fill:#05C0D0;" width="40" height="33"/>
<polygon style="fill:#05C0D0;" points="534,420.746 534,403.254 543.75,412 "/>
<polygon style="fill:#05C0D0;" points="552,420.746 552,403.254 561.75,412 "/>
<polygon style="fill:#05C0D0;" points="570,420.746 570,403.254 579.75,412 "/>
<polygon style="fill:#BBD655;" points="328.129,207 345.621,207 336.875,216.75 "/>
<polygon style="fill:#BBD655;" points="328.129,225 345.621,225 336.875,234.75 "/>
<polygon style="fill:#BBD655;" points="328.129,243 345.621,243 336.875,252.75 "/>
<polygon style="fill:#BBD655;" points="228,612.746 228,595.254 237.75,604 "/>
<polygon style="fill:#BBD655;" points="246,612.746 246,595.254 255.75,604 "/>
<polygon style="fill:#BBD655;" points="264,612.746 264,595.254 273.75,604 "/>
<g>
	<g>
		<path style="fill:#05C0D0;" d="M307.179,100.687h-9.837v12.692c0,1.848-1.504,3.352-3.352,3.352h-15.147v4.25
			c0,1.057,0.857,1.915,1.915,1.915h14.881l6.218,5.194c0.811,0.678,1.248,0.399,0.975-0.622l-1.215-4.541
			c-0.003-0.011-0.009-0.02-0.012-0.031h5.573c1.057,0,1.915-0.857,1.915-1.915v-18.38
			C309.093,101.544,308.236,100.687,307.179,100.687z"/>
		<path style="fill:#05C0D0;" d="M267.569,115.294h2.927c-0.003,0.01-0.009,0.02-0.012,0.031l-1.215,4.541
			c-0.172,0.644-0.062,0.993,0.245,0.993c0.181,0,0.429-0.12,0.729-0.37l6.218-5.194h2.381h15.147c1.057,0,1.915-0.857,1.915-1.915
			v-12.692V95c0-1.057-0.857-1.915-1.915-1.915h-26.421c-1.057,0-1.915,0.857-1.915,1.915v18.379
			C265.655,114.437,266.512,115.294,267.569,115.294z"/>
	</g>
</g>
<path style="fill:#FFFFFF;" d="M639.195,435.25c0.092,0.067,2.297,1.671,6.175,3.103c0.37,0.136,0.755,0.271,1.117,0.389
	c0.383,0.163,0.78,0.319,1.18,0.467c3.638,1.344,6.677,1.632,6.725,1.635c1.866-0.061,3.155-0.805,3.631-2.094l10.796-29.237
	c0.546-1.478-0.193-3.117-1.635-3.65l-0.002-0.001c-0.28-0.147-2.859-1.485-7.18-3.081l-0.531-0.194
	c-4.924-1.782-7.26-2.258-7.243-2.251c-1.48-0.546-3.128,0.213-3.674,1.693l-10.797,29.238
	C637.185,432.818,637.74,434.347,639.195,435.25z M642.646,425.804l0.385,0.402c0.213,0.222,0.273,0.701,0.137,1.069
	c-0.136,0.369-0.247,0.668-0.247,0.668c-0.076,0.206-0.286,0.277-0.471,0.159l-0.501-0.322c-0.185-0.118-0.273-0.381-0.197-0.586
	l0.482-1.304C642.31,425.684,642.494,425.646,642.646,425.804z M642.681,424.678l0.481-1.303c0.076-0.206,0.261-0.244,0.413-0.085
	l0.385,0.402c0.213,0.222,0.273,0.7,0.137,1.069c-0.136,0.369-0.247,0.668-0.247,0.668c-0.076,0.206-0.286,0.277-0.471,0.159
	l-0.501-0.321C642.693,425.147,642.605,424.884,642.681,424.678z M642.04,430.502c-0.076,0.206-0.288,0.276-0.472,0.158
	l-0.501-0.321c-0.184-0.117-0.272-0.38-0.196-0.586l0.481-1.304c0.076-0.206,0.26-0.244,0.411-0.086l0.386,0.402
	c0.212,0.221,0.273,0.7,0.137,1.069C642.151,430.203,642.04,430.502,642.04,430.502z M644.585,426.856l0.385,0.402
	c0.213,0.222,0.275,0.701,0.138,1.07c-0.136,0.368-0.246,0.667-0.246,0.667c-0.076,0.206-0.287,0.276-0.472,0.158l-0.501-0.321
	c-0.185-0.118-0.272-0.381-0.196-0.587l0.481-1.303C644.25,426.736,644.433,426.698,644.585,426.856z M644.621,425.73l0.481-1.304
	c0.076-0.206,0.26-0.244,0.411-0.086l0.385,0.402c0.213,0.222,0.274,0.701,0.138,1.07c-0.136,0.369-0.247,0.668-0.247,0.668
	c-0.076,0.206-0.288,0.276-0.472,0.159l-0.501-0.322C644.633,426.199,644.545,425.936,644.621,425.73z M643.979,431.554
	c-0.076,0.206-0.286,0.277-0.471,0.159l-0.501-0.321c-0.185-0.118-0.272-0.381-0.196-0.587l0.482-1.304
	c0.076-0.205,0.26-0.244,0.411-0.085l0.385,0.402c0.213,0.222,0.273,0.7,0.137,1.069
	C644.09,431.255,643.979,431.554,643.979,431.554z M646.563,427.846l0.385,0.402c0.212,0.222,0.273,0.7,0.137,1.069
	c-0.136,0.369-0.247,0.668-0.247,0.668c-0.076,0.206-0.286,0.277-0.471,0.158l-0.502-0.321c-0.183-0.118-0.272-0.381-0.196-0.587
	l0.481-1.303C646.227,427.726,646.411,427.687,646.563,427.846z M646.598,426.72l0.482-1.304c0.076-0.206,0.26-0.244,0.412-0.086
	l0.385,0.402c0.212,0.221,0.273,0.7,0.137,1.069c-0.136,0.369-0.247,0.668-0.247,0.668c-0.076,0.206-0.286,0.277-0.471,0.158
	l-0.502-0.321C646.61,427.189,646.522,426.926,646.598,426.72z M645.956,432.543c-0.076,0.206-0.286,0.277-0.471,0.159l-0.501-0.321
	c-0.185-0.118-0.272-0.381-0.196-0.587l0.481-1.304c0.076-0.206,0.26-0.244,0.412-0.086l0.385,0.402
	c0.213,0.223,0.273,0.701,0.137,1.069C646.066,432.244,645.956,432.543,645.956,432.543z M648.575,428.78l0.384,0.402
	c0.213,0.222,0.275,0.701,0.138,1.069c-0.136,0.369-0.247,0.668-0.247,0.668c-0.076,0.206-0.287,0.276-0.472,0.158l-0.5-0.32
	c-0.186-0.118-0.273-0.381-0.197-0.587l0.482-1.304C648.238,428.66,648.423,428.622,648.575,428.78z M648.609,427.654l0.482-1.304
	c0.076-0.206,0.261-0.243,0.413-0.085l0.384,0.402c0.213,0.222,0.275,0.701,0.138,1.069c-0.136,0.369-0.247,0.668-0.247,0.668
	c-0.076,0.206-0.288,0.276-0.472,0.158l-0.5-0.32C648.621,428.122,648.533,427.86,648.609,427.654z M647.969,433.478
	c-0.076,0.206-0.287,0.276-0.472,0.159l-0.501-0.321c-0.185-0.118-0.272-0.381-0.196-0.587l0.481-1.303
	c0.076-0.206,0.26-0.244,0.411-0.086l0.385,0.402c0.213,0.222,0.275,0.701,0.139,1.069
	C648.079,433.179,647.969,433.478,647.969,433.478z M650.539,424.72c0.207-0.56,0.827-0.845,1.387-0.639
	c0.559,0.206,0.845,0.827,0.638,1.387c-0.206,0.559-0.827,0.845-1.386,0.639C650.618,425.901,650.333,425.279,650.539,424.72z
	 M650.203,433.985c-0.076,0.206-0.313,0.349-0.531,0.318l-0.588-0.081c-0.217-0.03-0.332-0.222-0.256-0.428
	c0,0,0.11-0.299,0.247-0.668c0.136-0.368,0.495-0.692,0.8-0.722l0.553-0.056c0.218-0.022,0.333,0.127,0.258,0.333L650.203,433.985z
	 M651.195,431.467c-0.076,0.206-0.313,0.349-0.53,0.318l-0.589-0.082c-0.217-0.03-0.332-0.221-0.256-0.427
	c0,0,0.11-0.299,0.247-0.668c0.136-0.369,0.495-0.692,0.8-0.723l0.554-0.056c0.218-0.022,0.333,0.127,0.257,0.333L651.195,431.467
	L651.195,431.467z M652.125,428.952c-0.076,0.206-0.313,0.349-0.53,0.318l-0.589-0.082c-0.217-0.03-0.332-0.222-0.256-0.427
	c0,0,0.11-0.299,0.247-0.668c0.136-0.368,0.495-0.692,0.8-0.723l0.554-0.056c0.218-0.021,0.333,0.127,0.257,0.333L652.125,428.952
	L652.125,428.952z M652.34,434.582c-0.076,0.206-0.314,0.348-0.53,0.319l-0.591-0.082c-0.217-0.031-0.331-0.221-0.255-0.427
	c0,0,0.11-0.299,0.247-0.668c0.136-0.368,0.495-0.692,0.799-0.723l0.554-0.055c0.219-0.022,0.334,0.127,0.258,0.333L652.34,434.582
	L652.34,434.582z M653.332,432.065c-0.076,0.206-0.313,0.349-0.53,0.319l-0.589-0.082c-0.217-0.03-0.331-0.221-0.255-0.426
	c0,0,0.11-0.299,0.247-0.668c0.136-0.368,0.493-0.692,0.799-0.723l0.554-0.056c0.218-0.022,0.333,0.127,0.257,0.333L653.332,432.065
	L653.332,432.065z M654.261,429.549c-0.076,0.206-0.313,0.349-0.53,0.318l-0.589-0.082c-0.217-0.03-0.331-0.221-0.255-0.426
	c0,0,0.11-0.299,0.247-0.668c0.136-0.369,0.494-0.693,0.799-0.723l0.554-0.056c0.218-0.021,0.333,0.127,0.257,0.333L654.261,429.549
	L654.261,429.549z M654.485,435.116c-0.076,0.206-0.313,0.348-0.53,0.319l-0.589-0.082c-0.217-0.03-0.332-0.222-0.256-0.427
	c0,0,0.11-0.299,0.246-0.667c0.136-0.368,0.495-0.692,0.8-0.722l0.554-0.056c0.217-0.022,0.332,0.127,0.256,0.332L654.485,435.116z
	 M655.477,432.597c-0.076,0.206-0.313,0.349-0.53,0.319l-0.589-0.082c-0.217-0.03-0.331-0.221-0.255-0.426
	c0,0,0.11-0.299,0.246-0.667c0.136-0.369,0.494-0.693,0.799-0.723l0.554-0.055c0.218-0.022,0.333,0.126,0.256,0.332L655.477,432.597
	L655.477,432.597z M656.406,430.082c-0.076,0.206-0.313,0.349-0.53,0.318l-0.59-0.081c-0.217-0.031-0.331-0.221-0.255-0.427
	c0,0,0.11-0.299,0.247-0.668c0.136-0.368,0.494-0.693,0.799-0.723l0.554-0.056c0.217-0.022,0.332,0.127,0.256,0.332L656.406,430.082
	L656.406,430.082z M656.643,435.577c-0.076,0.206-0.314,0.348-0.531,0.318l-0.589-0.082c-0.217-0.03-0.331-0.221-0.255-0.426
	c0,0,0.11-0.299,0.246-0.667c0.136-0.369,0.494-0.693,0.799-0.723l0.554-0.055c0.218-0.022,0.334,0.127,0.258,0.333L656.643,435.577
	L656.643,435.577z M657.636,433.059c-0.076,0.206-0.314,0.348-0.53,0.318l-0.59-0.081c-0.217-0.03-0.332-0.222-0.256-0.427
	c0,0,0.11-0.299,0.247-0.668c0.136-0.368,0.495-0.692,0.799-0.723l0.555-0.055c0.218-0.022,0.333,0.127,0.257,0.333L657.636,433.059
	L657.636,433.059z M658.564,430.544c-0.076,0.206-0.314,0.348-0.53,0.319l-0.589-0.082c-0.217-0.03-0.332-0.222-0.256-0.427
	c0,0,0.11-0.299,0.247-0.668c0.136-0.368,0.495-0.692,0.799-0.723l0.555-0.055c0.218-0.022,0.333,0.127,0.257,0.333L658.564,430.544
	L658.564,430.544z M656.541,404.85l4.376,1.616c0.165,0.061,0.25,0.244,0.189,0.409c-0.061,0.165-0.244,0.249-0.409,0.188
	l-4.376-1.616c-0.165-0.061-0.25-0.244-0.189-0.409C656.193,404.874,656.375,404.789,656.541,404.85z M649.043,406.478l16.514,6.098
	l-4.7,12.727l-16.514-6.098L649.043,406.478z"/>
<g>
	<path style="fill:#FFFFFF;" d="M351.927,191.073h-1.004c-0.272,0-0.589-0.246-0.692-0.537c-0.096-0.27-0.208-0.538-0.334-0.798
		c-0.134-0.277-0.085-0.672,0.107-0.865l0.715-0.715c0.501-0.501,0.501-1.316,0-1.816l-1.16-1.16
		c-0.243-0.243-0.565-0.376-0.908-0.376c-0.343,0-0.665,0.134-0.908,0.376l-0.715,0.715c-0.115,0.115-0.306,0.183-0.511,0.183
		c-0.128,0-0.251-0.026-0.353-0.076c-0.26-0.126-0.529-0.238-0.799-0.335c-0.291-0.103-0.537-0.42-0.537-0.692v-1.004
		c0-0.708-0.576-1.284-1.284-1.284h-1.641c-0.708,0-1.284,0.576-1.284,1.284v1.004c0,0.272-0.246,0.589-0.537,0.692
		c-0.27,0.096-0.539,0.208-0.799,0.334c-0.101,0.049-0.226,0.076-0.352,0.076c-0.206,0-0.398-0.069-0.513-0.184l-0.714-0.713
		c-0.243-0.243-0.565-0.376-0.908-0.376c-0.343,0-0.665,0.134-0.908,0.376l-1.161,1.161c-0.243,0.242-0.376,0.565-0.376,0.908
		c0,0.343,0.134,0.666,0.376,0.908l0.715,0.715c0.192,0.192,0.242,0.588,0.108,0.865c-0.125,0.259-0.238,0.528-0.333,0.798
		c-0.103,0.291-0.42,0.537-0.692,0.537h-1.004c-0.708,0-1.284,0.576-1.284,1.284v1.641c0,0.708,0.576,1.284,1.284,1.284h1.004
		c0.272,0,0.589,0.246,0.692,0.537c0.096,0.269,0.208,0.538,0.334,0.798c0.134,0.277,0.084,0.673-0.108,0.865l-0.715,0.715
		c-0.501,0.501-0.501,1.315,0,1.816l1.162,1.162c0.243,0.243,0.565,0.376,0.908,0.376c0.343,0,0.665-0.134,0.908-0.376l0.715-0.715
		c0.115-0.115,0.306-0.184,0.512-0.184c0.128,0,0.25,0.026,0.353,0.076c0.26,0.126,0.528,0.238,0.798,0.334
		c0.291,0.103,0.537,0.42,0.537,0.692v1.004c0,0.708,0.576,1.284,1.284,1.284h1.641c0.708,0,1.284-0.576,1.284-1.284v-1.004
		c0-0.272,0.246-0.589,0.537-0.692c0.27-0.096,0.539-0.208,0.799-0.334c0.101-0.049,0.226-0.076,0.352-0.076
		c0.206,0,0.397,0.069,0.513,0.184l0.715,0.715c0.243,0.243,0.565,0.376,0.908,0.376c0.343,0,0.666-0.134,0.908-0.376l1.16-1.161
		c0.501-0.501,0.501-1.316,0-1.816l-0.714-0.714c-0.192-0.192-0.241-0.588-0.108-0.865c0.126-0.26,0.238-0.528,0.334-0.798
		c0.103-0.291,0.42-0.537,0.692-0.537h1.004c0.708,0,1.284-0.576,1.284-1.284v-1.641
		C353.212,191.649,352.635,191.073,351.927,191.073z M346.487,193.178c0,2.075-1.688,3.764-3.764,3.764
		c-2.075,0-3.764-1.688-3.764-3.764c0-2.075,1.688-3.764,3.764-3.764C344.799,189.415,346.487,191.103,346.487,193.178z"/>
	<path style="fill:#FFFFFF;" d="M334.942,182.834c0.024-0.068,0.105-0.126,0.144-0.126h0.503c0.472,0,0.856-0.384,0.856-0.856v-0.82
		c0-0.472-0.384-0.856-0.856-0.856h-0.503c-0.038,0-0.119-0.058-0.144-0.126c-0.051-0.142-0.11-0.284-0.176-0.421
		c-0.031-0.064-0.015-0.161,0.012-0.188l0.357-0.357c0.334-0.334,0.334-0.877,0-1.211l-0.58-0.58
		c-0.162-0.162-0.377-0.251-0.605-0.251c-0.229,0-0.444,0.089-0.605,0.251l-0.357,0.357c-0.011,0.011-0.049,0.029-0.104,0.029
		c-0.031,0-0.061-0.006-0.083-0.017c-0.137-0.066-0.279-0.126-0.421-0.176c-0.068-0.024-0.126-0.106-0.126-0.144v-0.503
		c0-0.472-0.384-0.856-0.856-0.856h-0.821c-0.472,0-0.856,0.384-0.856,0.856v0.503c0,0.038-0.058,0.119-0.126,0.144
		c-0.143,0.051-0.285,0.11-0.421,0.176c-0.022,0.01-0.052,0.016-0.083,0.016c-0.055,0-0.093-0.018-0.104-0.029l-0.357-0.357
		c-0.162-0.162-0.377-0.251-0.605-0.251c-0.229,0-0.444,0.089-0.605,0.251l-0.58,0.58c-0.334,0.334-0.334,0.877,0,1.211l0.357,0.357
		c0.027,0.027,0.043,0.123,0.012,0.187c-0.066,0.137-0.126,0.279-0.176,0.421c-0.024,0.068-0.106,0.126-0.144,0.126h-0.503
		c-0.472,0-0.856,0.384-0.856,0.856v0.821c0,0.472,0.384,0.856,0.856,0.856h0.503c0.038,0,0.119,0.058,0.144,0.126
		c0.051,0.142,0.11,0.284,0.176,0.421c0.031,0.064,0.014,0.161-0.012,0.188l-0.358,0.357c-0.162,0.162-0.251,0.377-0.251,0.605
		c0,0.229,0.089,0.444,0.251,0.605l0.58,0.58c0.162,0.162,0.377,0.251,0.605,0.251c0.229,0,0.444-0.089,0.605-0.251l0.357-0.357
		c0.011-0.011,0.049-0.029,0.104-0.029c0.031,0,0.061,0.006,0.083,0.017c0.137,0.066,0.279,0.126,0.421,0.176
		c0.069,0.024,0.126,0.106,0.126,0.144v0.503c0,0.472,0.384,0.856,0.856,0.856h0.821c0.472,0,0.856-0.384,0.856-0.856v-0.503
		c0-0.038,0.058-0.119,0.126-0.144c0.142-0.051,0.284-0.11,0.421-0.176c0.022-0.01,0.052-0.016,0.083-0.016
		c0.055,0,0.093,0.018,0.104,0.029l0.358,0.357c0.162,0.162,0.377,0.251,0.605,0.251c0.229,0,0.444-0.089,0.605-0.251l0.58-0.58
		c0.334-0.334,0.334-0.877,0-1.211l-0.357-0.357c-0.027-0.027-0.043-0.124-0.012-0.188
		C334.832,183.117,334.892,182.976,334.942,182.834z M332.654,181.441c0,0.919-0.748,1.668-1.668,1.668
		c-0.92,0-1.668-0.748-1.668-1.668s0.748-1.668,1.668-1.668C331.906,179.773,332.654,180.522,332.654,181.441z"/>
</g>
<line style="fill:none;stroke:#A0A0A0;stroke-miterlimit:10;" x1="306" y1="362.5" x2="339" y2="362.5"/>
<line style="fill:none;stroke:#A0A0A0;stroke-miterlimit:10;" x1="306" y1="366.5" x2="339" y2="366.5"/>
<line style="fill:none;stroke:#A0A0A0;stroke-miterlimit:10;" x1="306" y1="370.5" x2="335" y2="370.5"/>
<line style="fill:none;stroke:#A0A0A0;stroke-miterlimit:10;" x1="306" y1="374.5" x2="345" y2="374.5"/>
<line style="fill:none;stroke:#A0A0A0;stroke-miterlimit:10;" x1="306" y1="378.5" x2="343" y2="378.5"/>
<line style="fill:none;stroke:#A0A0A0;stroke-miterlimit:10;" x1="306" y1="382.5" x2="349" y2="382.5"/>
<line style="fill:none;stroke:#A0A0A0;stroke-miterlimit:10;" x1="407" y1="362.5" x2="440" y2="362.5"/>
<line style="fill:none;stroke:#A0A0A0;stroke-miterlimit:10;" x1="407" y1="366.5" x2="440" y2="366.5"/>
<line style="fill:none;stroke:#A0A0A0;stroke-miterlimit:10;" x1="407" y1="370.5" x2="446" y2="370.5"/>
<line style="fill:none;stroke:#A0A0A0;stroke-miterlimit:10;" x1="407" y1="374.5" x2="450" y2="374.5"/>
<line style="fill:none;stroke:#A0A0A0;stroke-miterlimit:10;" x1="407" y1="378.5" x2="444" y2="378.5"/>
<line style="fill:none;stroke:#A0A0A0;stroke-miterlimit:10;" x1="407" y1="382.5" x2="450" y2="382.5"/>
<line style="fill:none;stroke:#A0A0A0;stroke-miterlimit:10;" x1="356" y1="362.5" x2="399" y2="362.5"/>
<line style="fill:none;stroke:#A0A0A0;stroke-miterlimit:10;" x1="356" y1="366.5" x2="394" y2="366.5"/>
<line style="fill:none;stroke:#A0A0A0;stroke-miterlimit:10;" x1="356" y1="370.5" x2="385" y2="370.5"/>
<line style="fill:none;stroke:#A0A0A0;stroke-miterlimit:10;" x1="356" y1="374.5" x2="399" y2="374.5"/>
<line style="fill:none;stroke:#A0A0A0;stroke-miterlimit:10;" x1="356" y1="378.5" x2="399" y2="378.5"/>
<line style="fill:none;stroke:#A0A0A0;stroke-miterlimit:10;" x1="356" y1="382.5" x2="399" y2="382.5"/>
<line style="fill:none;stroke:#A0A0A0;stroke-miterlimit:10;" x1="163" y1="539.5" x2="204" y2="539.5"/>
<line style="fill:none;stroke:#A0A0A0;stroke-miterlimit:10;" x1="163" y1="543.5" x2="204" y2="543.5"/>
<line style="fill:none;stroke:#A0A0A0;stroke-miterlimit:10;" x1="163" y1="547.5" x2="204" y2="547.5"/>
<line style="fill:none;stroke:#A0A0A0;stroke-miterlimit:10;" x1="163" y1="551.5" x2="204" y2="551.5"/>
<line style="fill:none;stroke:#A0A0A0;stroke-miterlimit:10;" x1="163" y1="555.5" x2="204" y2="555.5"/>
<line style="fill:none;stroke:#A0A0A0;stroke-miterlimit:10;" x1="163" y1="559.5" x2="204" y2="559.5"/>
<line style="fill:none;stroke:#A0A0A0;stroke-miterlimit:10;" x1="163" y1="563.5" x2="204" y2="563.5"/>
<line style="fill:none;stroke:#A0A0A0;stroke-miterlimit:10;" x1="163" y1="567.5" x2="204" y2="567.5"/>
<line style="fill:none;stroke:#A0A0A0;stroke-miterlimit:10;" x1="163" y1="571.5" x2="204" y2="571.5"/>
<line style="fill:none;stroke:#A0A0A0;stroke-miterlimit:10;" x1="94" y1="131.5" x2="129" y2="131.5"/>
<line style="fill:none;stroke:#A0A0A0;stroke-miterlimit:10;" x1="94" y1="135.5" x2="129" y2="135.5"/>
<line style="fill:none;stroke:#A0A0A0;stroke-miterlimit:10;" x1="94" y1="139.5" x2="129" y2="139.5"/>
<line style="fill:none;stroke:#A0A0A0;stroke-miterlimit:10;" x1="94" y1="143.5" x2="129" y2="143.5"/>
<line style="fill:none;stroke:#A0A0A0;stroke-miterlimit:10;" x1="94" y1="147.5" x2="129" y2="147.5"/>
<line style="fill:none;stroke:#A0A0A0;stroke-miterlimit:10;" x1="94" y1="151.5" x2="129" y2="151.5"/>
<line style="fill:none;stroke:#A0A0A0;stroke-miterlimit:10;" x1="94" y1="155.5" x2="129" y2="155.5"/>
<line style="fill:none;stroke:#A0A0A0;stroke-miterlimit:10;" x1="94" y1="159.5" x2="129" y2="159.5"/>
<line style="fill:none;stroke:#A0A0A0;stroke-miterlimit:10;" x1="94" y1="163.5" x2="129" y2="163.5"/>
<line style="fill:none;stroke:#A0A0A0;stroke-miterlimit:10;" x1="134" y1="131.5" x2="166" y2="131.5"/>
<line style="fill:none;stroke:#A0A0A0;stroke-miterlimit:10;" x1="134" y1="135.5" x2="166" y2="135.5"/>
<line style="fill:none;stroke:#A0A0A0;stroke-miterlimit:10;" x1="134" y1="139.5" x2="166" y2="139.5"/>
<line style="fill:none;stroke:#A0A0A0;stroke-miterlimit:10;" x1="134" y1="143.5" x2="166" y2="143.5"/>
<line style="fill:none;stroke:#A0A0A0;stroke-miterlimit:10;" x1="134" y1="147.5" x2="166" y2="147.5"/>
<line style="fill:none;stroke:#A0A0A0;stroke-miterlimit:10;" x1="134" y1="151.5" x2="166" y2="151.5"/>
<line style="fill:none;stroke:#A0A0A0;stroke-miterlimit:10;" x1="134" y1="155.5" x2="166" y2="155.5"/>
<line style="fill:none;stroke:#A0A0A0;stroke-miterlimit:10;" x1="134" y1="159.5" x2="166" y2="159.5"/>
<line style="fill:none;stroke:#A0A0A0;stroke-miterlimit:10;" x1="134" y1="163.5" x2="166" y2="163.5"/>
<line style="fill:none;stroke:#A0A0A0;stroke-miterlimit:10;" x1="517" y1="569.5" x2="567" y2="569.5"/>
<line style="fill:none;stroke:#A0A0A0;stroke-miterlimit:10;" x1="517" y1="573.5" x2="567" y2="573.5"/>
<line style="fill:none;stroke:#A0A0A0;stroke-miterlimit:10;" x1="517" y1="577.5" x2="567" y2="577.5"/>
<line style="fill:none;stroke:#A0A0A0;stroke-miterlimit:10;" x1="517" y1="581.5" x2="567" y2="581.5"/>
<line style="fill:none;stroke:#A0A0A0;stroke-miterlimit:10;" x1="517" y1="585.5" x2="567" y2="585.5"/>
<line style="fill:none;stroke:#A0A0A0;stroke-miterlimit:10;" x1="517" y1="589.5" x2="567" y2="589.5"/>
<line style="fill:none;stroke:#A0A0A0;stroke-miterlimit:10;" x1="517" y1="593.5" x2="567" y2="593.5"/>
<line style="fill:none;stroke:#A0A0A0;stroke-miterlimit:10;" x1="517" y1="597.5" x2="567" y2="597.5"/>
<line style="fill:none;stroke:#A0A0A0;stroke-miterlimit:10;" x1="517" y1="601.5" x2="567" y2="601.5"/>
<line style="fill:none;stroke:#A0A0A0;stroke-miterlimit:10;" x1="573" y1="569.5" x2="623" y2="569.5"/>
<line style="fill:none;stroke:#A0A0A0;stroke-miterlimit:10;" x1="573" y1="573.5" x2="623" y2="573.5"/>
<line style="fill:none;stroke:#A0A0A0;stroke-miterlimit:10;" x1="573" y1="577.5" x2="623" y2="577.5"/>
<line style="fill:none;stroke:#A0A0A0;stroke-miterlimit:10;" x1="573" y1="581.5" x2="623" y2="581.5"/>
<line style="fill:none;stroke:#A0A0A0;stroke-miterlimit:10;" x1="573" y1="585.5" x2="623" y2="585.5"/>
<line style="fill:none;stroke:#A0A0A0;stroke-miterlimit:10;" x1="573" y1="589.5" x2="623" y2="589.5"/>
<line style="fill:none;stroke:#A0A0A0;stroke-miterlimit:10;" x1="573" y1="593.5" x2="623" y2="593.5"/>
<line style="fill:none;stroke:#A0A0A0;stroke-miterlimit:10;" x1="573" y1="597.5" x2="623" y2="597.5"/>
<line style="fill:none;stroke:#A0A0A0;stroke-miterlimit:10;" x1="573" y1="601.5" x2="623" y2="601.5"/>
<line style="fill:none;stroke:#A0A0A0;stroke-miterlimit:10;" x1="629" y1="569.5" x2="679" y2="569.5"/>
<line style="fill:none;stroke:#A0A0A0;stroke-miterlimit:10;" x1="629" y1="573.5" x2="679" y2="573.5"/>
<line style="fill:none;stroke:#A0A0A0;stroke-miterlimit:10;" x1="629" y1="577.5" x2="679" y2="577.5"/>
<line style="fill:none;stroke:#A0A0A0;stroke-miterlimit:10;" x1="629" y1="581.5" x2="679" y2="581.5"/>
<line style="fill:none;stroke:#A0A0A0;stroke-miterlimit:10;" x1="629" y1="585.5" x2="679" y2="585.5"/>
<line style="fill:none;stroke:#A0A0A0;stroke-miterlimit:10;" x1="629" y1="589.5" x2="679" y2="589.5"/>
<line style="fill:none;stroke:#A0A0A0;stroke-miterlimit:10;" x1="629" y1="593.5" x2="679" y2="593.5"/>
<line style="fill:none;stroke:#A0A0A0;stroke-miterlimit:10;" x1="629" y1="597.5" x2="679" y2="597.5"/>
<line style="fill:none;stroke:#A0A0A0;stroke-miterlimit:10;" x1="629" y1="601.5" x2="679" y2="601.5"/>
<line style="fill:none;stroke:#A0A0A0;stroke-miterlimit:10;" x1="171" y1="131.5" x2="205" y2="131.5"/>
<line style="fill:none;stroke:#A0A0A0;stroke-miterlimit:10;" x1="171" y1="135.5" x2="205" y2="135.5"/>
<line style="fill:none;stroke:#A0A0A0;stroke-miterlimit:10;" x1="171" y1="139.5" x2="205" y2="139.5"/>
<line style="fill:none;stroke:#A0A0A0;stroke-miterlimit:10;" x1="171" y1="143.5" x2="205" y2="143.5"/>
<line style="fill:none;stroke:#A0A0A0;stroke-miterlimit:10;" x1="171" y1="147.5" x2="205" y2="147.5"/>
<line style="fill:none;stroke:#A0A0A0;stroke-miterlimit:10;" x1="171" y1="151.5" x2="205" y2="151.5"/>
<line style="fill:none;stroke:#A0A0A0;stroke-miterlimit:10;" x1="171" y1="155.5" x2="205" y2="155.5"/>
<line style="fill:none;stroke:#A0A0A0;stroke-miterlimit:10;" x1="171" y1="159.5" x2="205" y2="159.5"/>
<line style="fill:none;stroke:#A0A0A0;stroke-miterlimit:10;" x1="171" y1="163.5" x2="205" y2="163.5"/>
<line style="fill:none;stroke:#A0A0A0;stroke-miterlimit:10;" x1="121" y1="577.5" x2="160" y2="577.5"/>
<line style="fill:none;stroke:#A0A0A0;stroke-miterlimit:10;" x1="121" y1="581.5" x2="160" y2="581.5"/>
<line style="fill:none;stroke:#A0A0A0;stroke-miterlimit:10;" x1="121" y1="585.5" x2="160" y2="585.5"/>
<line style="fill:none;stroke:#A0A0A0;stroke-miterlimit:10;" x1="121" y1="589.5" x2="160" y2="589.5"/>
<line style="fill:none;stroke:#A0A0A0;stroke-miterlimit:10;" x1="121" y1="593.5" x2="160" y2="593.5"/>
<line style="fill:none;stroke:#A0A0A0;stroke-miterlimit:10;" x1="121" y1="597.5" x2="160" y2="597.5"/>
<line style="fill:none;stroke:#A0A0A0;stroke-miterlimit:10;" x1="121" y1="601.5" x2="160" y2="601.5"/>
<line style="fill:none;stroke:#A0A0A0;stroke-miterlimit:10;" x1="121" y1="605.5" x2="160" y2="605.5"/>
<line style="fill:none;stroke:#A0A0A0;stroke-miterlimit:10;" x1="121" y1="609.5" x2="160" y2="609.5"/>
<g>
	<g>
		<path style="fill:#012F58;" d="M274.764,497.07l8.122-10.241c1.613,1.97,3.632,3.571,5.917,4.693l-8.122,10.241
			c-1.296,1.635-3.673,1.909-5.305,0.612C273.742,501.081,273.468,498.705,274.764,497.07z"/>
		<path style="fill:#012F58;" d="M298.26,490.711c8.287-0.956,14.231-8.451,13.275-16.738c-0.956-8.287-8.451-14.231-16.738-13.275
			c-8.287,0.956-14.231,8.451-13.275,16.738C282.478,485.723,289.973,491.667,298.26,490.711z M285.274,477.003
			c-0.716-6.206,3.75-11.837,9.956-12.554c6.206-0.716,11.837,3.75,12.554,9.956c0.716,6.206-3.75,11.837-9.956,12.554
			C291.621,487.675,285.99,483.209,285.274,477.003z"/>
		<path style="fill:#012F58;" d="M305.282,474.694l-2.501,0.289c-0.398-3.448-3.527-5.929-6.974-5.531l-0.289-2.501
			C300.345,466.393,304.725,469.868,305.282,474.694z"/>
	</g>
</g>
<path style="fill:#FFFFFF;" d="M333.264,598.595c0-4.325,3.506-7.831,7.831-7.831c4.325,0,7.831,3.506,7.831,7.831
	c0,4.325-3.506,7.831-7.831,7.831C336.77,606.426,333.264,602.919,333.264,598.595z M344.861,616.284
	c-0.693-1.112-1.1-2.42-1.1-3.824c0-2.115,0.915-4.016,2.363-5.344c-0.556-0.096-1.124-0.156-1.707-0.156h-6.644
	c-5.528,0-10.026,4.498-10.026,10.026v8.128l0.021,0.127l0.56,0.175c4.543,1.419,8.569,2.021,12.01,2.162v-3.709
	C340.337,620.596,342.169,617.745,344.861,616.284z M362.723,606.426c4.325,0,7.831-3.506,7.831-7.831
	c0-4.325-3.506-7.831-7.831-7.831c-4.325,0-7.831,3.506-7.831,7.831C354.892,602.92,358.398,606.426,362.723,606.426z
	 M366.045,606.96h-6.644c-1.092,0-2.141,0.181-3.126,0.506c1.239,1.303,2.004,3.059,2.004,4.995c0,1.404-0.407,2.712-1.1,3.825
	c2.692,1.46,4.523,4.312,4.523,7.583v3.695c0.646,0.03,1.28,0.051,1.885,0.051c7.369,0,11.64-2.102,11.904-2.235l0.523-0.266
	l0.055,0v-8.128C376.07,611.458,371.573,606.96,366.045,606.96z M346.163,612.727c0,2.682,2.174,4.858,4.857,4.858
	c2.683,0,4.857-2.175,4.857-4.858c0-2.682-2.174-4.857-4.857-4.857C348.337,607.87,346.163,610.045,346.163,612.727z
	 M353.081,617.915h-4.121c-3.429,0-6.219,2.79-6.219,6.219v5.042l0.013,0.078l0.347,0.108c3.272,1.023,6.116,1.364,8.456,1.364
	c4.571,0,7.22-1.303,7.384-1.386l0.325-0.165l0.034,0v-5.042C359.3,620.706,356.51,617.915,353.081,617.915z"/>
<path style="fill:#05C0D0;" d="M105.44,241.602c-17.916,0-32.439,11.8-32.439,26.357c0,14.557,14.524,26.357,32.439,26.357
	c1.721,0,3.409-0.11,5.058-0.32c6.968,6.968,15.285,8.217,23.327,8.401v-1.705c-4.342-2.128-8.11-6.003-8.11-10.431
	c0-0.618,0.048-1.225,0.137-1.818c7.337-4.832,12.028-12.212,12.028-20.484C137.879,253.403,123.355,241.602,105.44,241.602z"/>
<path style="fill:#FFFFFF;" d="M113.974,262.309l-1.252,0.435l-1.294-3.727c-1.414-4.072-5.66-6.309-9.731-4.895
	c-4.071,1.414-6.017,5.801-4.604,9.872l1.294,3.727l-1.362,0.473c-0.591,0.205-1.259,1.232-1.054,1.823l4.942,14.232
	c0.205,0.591,1.162,0.396,1.753,0.191l16.948-5.885c0.591-0.205,0.617-0.352,0.412-0.943l-4.942-14.232
	C114.88,262.789,114.565,262.104,113.974,262.309z M109.855,263.739l-8.601,2.986l-1.294-3.727
	c-0.881-2.538,0.166-5.214,2.703-6.095c2.537-0.881,5.017,0.571,5.898,3.108L109.855,263.739z"/>
<g>
	<path style="fill:#FFFFFF;" d="M596.474,273.238l-3.556-3.113l-10.168,8.716c0.37,0.343,0.869,0.556,1.419,0.556h24.611
		c0.548,0,1.045-0.214,1.413-0.556l-10.162-8.716L596.474,273.238z"/>
	<path style="fill:#FFFFFF;" d="M610.199,259.421c-0.37-0.345-0.867-0.556-1.419-0.556h-24.611c-0.548,0-1.045,0.214-1.415,0.561
		l13.72,11.759L610.199,259.421z"/>
	<polygon style="fill:#FFFFFF;" points="582.101,260.667 582.101,277.726 592.025,269.293 	"/>
	<polygon style="fill:#FFFFFF;" points="600.924,269.293 610.848,277.726 610.848,260.661 	"/>
</g>
</svg>
