<?xml version="1.0" standalone="no"?>
<!DOCTYPE svg PUBLIC "-//W3C//DTD SVG 20010904//EN"
 "http://www.w3.org/TR/2001/REC-SVG-20010904/DTD/svg10.dtd">
<svg version="1.0" xmlns="http://www.w3.org/2000/svg"
 width="362.000000pt" height="384.000000pt" viewBox="0 0 362.000000 384.000000"
 preserveAspectRatio="xMidYMid meet">
<metadata>
Created by potrace 1.16, written by Peter Selinger 2001-2019
</metadata>
<g transform="translate(0.000000,384.000000) scale(0.100000,-0.100000)"
fill="#000000" stroke="none">
<path d="M1680 3212 c-19 -16 -30 -17 -82 -9 -207 34 -422 -107 -483 -316 -16
-57 -16 -57 -56 -57 -21 0 -39 -2 -39 -4 0 -2 20 -37 45 -77 25 -40 45 -79 45
-87 0 -8 -9 -25 -20 -39 -17 -22 -20 -41 -20 -144 0 -127 9 -161 47 -178 39
-18 238 -14 276 5 23 12 61 17 147 18 113 1 118 2 192 38 121 60 190 139 232
265 23 66 24 68 60 71 20 2 36 5 36 8 0 3 -16 31 -36 62 -50 77 -56 102 -33
131 16 20 19 41 19 151 0 114 -2 130 -21 154 -20 26 -22 26 -154 26 -113 0
-136 -3 -155 -18z m292 -19 c16 -14 18 -33 18 -140 0 -164 1 -163 -154 -163
-99 0 -117 3 -140 21 -25 20 -26 23 -26 138 0 164 -3 161 157 161 104 0 130
-3 145 -17z m-359 -9 l37 -7 0 -123 c0 -115 1 -125 24 -151 24 -28 25 -28 153
-30 104 -2 129 -5 131 -17 2 -8 -15 -44 -37 -79 -23 -35 -41 -67 -41 -71 0 -3
18 -6 40 -6 48 0 50 -10 16 -92 -49 -120 -139 -206 -260 -248 -32 -12 -60 -19
-62 -17 -3 2 14 24 35 48 57 61 117 184 137 279 14 63 21 80 35 80 10 0 21 5
24 10 4 6 -5 10 -19 10 -19 0 -26 5 -26 19 0 26 -10 51 -20 51 -5 0 -6 -16 -3
-35 l6 -35 -117 0 -116 0 0 210 c0 161 3 210 13 210 6 0 29 -3 50 -6z m-180
-51 c-53 -70 -104 -186 -122 -280 l-16 -83 -33 0 c-20 0 -31 -4 -27 -10 3 -5
19 -10 36 -10 23 0 29 -4 29 -22 0 -13 5 -30 10 -38 11 -17 13 -9 10 33 l-2
27 106 0 106 0 0 -205 0 -205 -27 0 c-74 0 -73 -1 -73 137 0 118 -1 125 -25
148 -23 24 -30 25 -148 25 -152 0 -156 4 -97 95 22 34 40 67 40 73 0 7 -16 12
-40 12 -39 0 -40 1 -34 28 9 43 60 144 93 183 52 62 177 135 238 138 7 1 -4
-20 -24 -46z m97 -158 l0 -205 -106 0 -107 0 7 50 c10 75 56 197 100 263 36
55 79 97 97 97 5 0 9 -92 9 -205z m250 -237 c-1 -42 -36 -152 -71 -218 -38
-74 -126 -180 -148 -180 -8 0 -11 68 -11 205 l0 205 115 0 c85 0 115 -3 115
-12z m-388 -125 c16 -14 18 -33 18 -140 0 -165 2 -163 -160 -163 -161 0 -160
-1 -160 158 0 165 -3 162 157 162 104 0 130 -3 145 -17z"/>
<path d="M1772 3065 c-30 -52 -52 -100 -49 -107 2 -8 14 3 27 25 22 36 23 37
83 37 61 0 62 -1 84 -38 14 -23 22 -31 23 -19 0 18 -98 197 -109 197 -3 0 -30
-43 -59 -95z"/>
<path d="M2237 2620 c-37 -29 -50 -82 -32 -132 13 -40 13 -40 -21 -70 -35 -31
-56 -85 -70 -180 -13 -100 17 -128 139 -128 l73 0 0 -51 c-1 -42 3 -54 23 -70
20 -17 40 -19 171 -19 134 0 150 2 174 21 22 17 26 28 26 69 l0 48 86 3 c77 4
88 6 106 29 18 22 20 34 15 95 -8 97 -25 140 -70 186 -29 28 -37 42 -29 52 10
12 15 43 13 85 -1 13 -14 37 -30 53 -24 24 -38 29 -76 29 -40 0 -51 -5 -77
-32 -26 -28 -29 -37 -25 -77 2 -26 8 -56 12 -68 6 -18 3 -23 -9 -23 -9 0 -16
5 -16 10 0 6 -11 22 -25 35 -47 48 -155 26 -177 -36 -4 -10 -8 -11 -18 -3 -9
9 -9 17 -1 32 24 45 9 110 -33 144 -30 25 -97 23 -129 -2z m98 -4 c39 -17 55
-42 55 -89 0 -76 -88 -113 -147 -63 -57 49 -24 148 55 165 1 1 18 -5 37 -13z
m462 -19 c30 -27 38 -69 19 -106 -44 -85 -166 -58 -166 36 0 46 15 72 52 88
36 15 65 10 95 -18z m-242 -111 c39 -17 55 -42 55 -86 0 -44 -16 -69 -56 -86
-29 -12 -39 -12 -68 0 -40 17 -56 42 -56 86 0 43 16 69 53 85 40 18 32 17 72
1z m-151 -79 c2 -7 9 -29 16 -50 11 -37 11 -40 -18 -70 -34 -37 -57 -78 -67
-124 l-7 -33 -79 0 c-67 0 -82 3 -100 21 -19 19 -21 29 -15 78 9 85 24 128 58
167 30 34 33 35 84 28 30 -3 60 -2 70 4 20 11 53 -1 58 -21z m439 4 c31 -25
58 -100 64 -175 5 -71 5 -74 -20 -90 -19 -13 -43 -16 -98 -14 l-72 3 -15 54
c-10 36 -28 67 -54 95 -34 35 -38 43 -29 64 6 12 11 31 11 40 0 10 5 23 10 28
16 16 184 11 203 -5z m-323 -125 c8 0 29 4 46 8 65 15 120 -68 131 -196 9
-105 4 -108 -174 -108 -132 0 -145 2 -164 21 -18 18 -20 28 -14 82 10 84 30
136 68 175 27 28 36 32 62 26 16 -4 37 -8 45 -8z"/>
<path d="M1127 1962 c-14 -16 -17 -44 -17 -184 0 -180 4 -192 60 -200 25 -3
25 -4 28 -119 l3 -115 -51 -73 c-42 -58 -49 -75 -39 -87 17 -21 1147 -21 1155
0 3 8 -17 47 -46 87 l-51 73 3 115 3 116 27 3 c51 6 58 31 58 197 0 208 13
195 -196 195 -152 0 -165 -2 -181 -20 -16 -19 -30 -20 -196 -20 l-179 0 -20
25 c-19 25 -21 25 -182 25 -145 0 -165 -2 -179 -18z m341 -14 c17 -17 17 -319
0 -336 -17 -17 -309 -17 -326 0 -17 17 -17 319 0 336 8 8 59 12 163 12 104 0
155 -4 163 -12z m760 -10 c17 -17 17 -309 0 -326 -8 -8 -59 -12 -162 -12 -196
0 -186 -10 -186 172 0 77 5 148 10 159 10 18 23 19 168 19 110 0 162 -4 170
-12z m-366 -172 c4 -192 -1 -186 165 -186 l123 0 0 -120 0 -120 -465 0 -465 0
0 120 0 120 122 0 c165 0 158 -8 158 182 l0 148 179 0 180 0 3 -144z m345
-509 l42 -62 -279 -3 c-153 -1 -407 -1 -564 0 l-285 3 42 62 42 62 480 0 480
0 42 -62z"/>
<path d="M2001 1784 c-28 -58 -51 -110 -51 -115 0 -20 17 -7 33 26 16 34 18
35 77 35 59 0 61 -1 81 -35 24 -40 43 -47 29 -11 -20 53 -101 206 -109 206 -4
0 -31 -48 -60 -106z"/>
<path d="M960 678 c0 -13 -3 -53 -7 -90 -6 -65 -5 -68 16 -68 19 0 21 5 22 68
0 72 7 67 30 -21 17 -67 38 -59 64 23 l20 65 5 -65 c4 -51 9 -66 23 -68 14 -3
17 4 17 50 0 29 -3 70 -7 91 -5 34 -9 38 -32 35 -23 -3 -28 -11 -42 -62 -17
-66 -21 -65 -39 12 -11 48 -14 52 -41 52 -23 0 -29 -4 -29 -22z"/>
<path d="M2085 628 c-33 -48 -4 -113 47 -106 22 4 28 1 26 -11 -2 -10 -14 -16
-33 -16 -33 0 -51 -15 -32 -27 20 -13 61 -9 85 8 20 13 22 24 22 93 l0 78 -50
2 c-40 0 -52 -3 -65 -21z"/>
<path d="M2555 628 c-19 -29 -19 -58 1 -87 14 -19 23 -22 50 -18 32 5 33 4 23
-15 -8 -15 -18 -19 -40 -16 -17 3 -30 -1 -33 -8 -10 -26 57 -33 92 -8 20 13
22 24 22 93 l0 78 -50 2 c-40 0 -52 -3 -65 -21z"/>
<path d="M1033 342 c-23 -15 -34 -62 -21 -90 17 -34 79 -43 109 -16 24 22 25
76 1 97 -19 18 -68 22 -89 9z"/>
</g>
</svg>
